<?xml version="1.0" ?><svg id="main" viewBox="0 0 100 100" xmlns="http://www.w3.org/2000/svg"><title/><path d="M38.59,22.76a6.74,6.74,0,0,0-2.06,9L48.85,53a2.28,2.28,0,0,0,2.6,1.05h0a2.28,2.28,0,0,0,1.65-2.27l-.84-24.6a6.74,6.74,0,0,0-6.81-6.51A10.48,10.48,0,0,0,46,16.57c-.41-4.52-4.16-7.79-4.32-7.92a1,1,0,0,0-1.64.9s.48,3.39.85,7.49c0,.34.06.7.09,1l-.48-.93c-1.85-3.67-3.23-6.77-3.24-6.8a1,1,0,0,0-1-.59,1,1,0,0,0-.9.7c-.06.2-1.51,5,.53,9A10.52,10.52,0,0,0,38.59,22.76Zm9.72.84a4.72,4.72,0,0,1,2,3.68l.07,2.16-3.58,1a1,1,0,1,0,.55,1.92l3.09-.89.7,20.38a.28.28,0,0,1-.52.15l-5-8.73,2.61-.75a1,1,0,1,0-.55-1.92l-2.88.83a1,1,0,0,0-.19.1L42.44,38l2.13-.61A1,1,0,1,0,44,35.42l-2.61.75-2.58-4.46,1.89-.54a1,1,0,1,0-.55-1.92l-2.28.65a4.74,4.74,0,0,1,3.18-6.11l3.14-.9a4.78,4.78,0,0,1,1.32-.19A4.72,4.72,0,0,1,48.31,23.61ZM44,16.75a9.07,9.07,0,0,1-.78,4.34h0c-.09-1.45-.21-2.88-.33-4.25-.14-1.57-.3-3-.44-4.25A9.22,9.22,0,0,1,44,16.75ZM38.68,18c.62,1.23,1.28,2.5,2,3.78h0a9.07,9.07,0,0,1-3-3.27,9.22,9.22,0,0,1-.87-4.34C37.33,15.31,38,16.64,38.68,18Z"/><path d="M27.34,29.12a56,56,0,0,0,4.2,7.1l.68,1a1,1,0,0,0,1.64-1.14l-.68-1a54.08,54.08,0,0,1-3.75-6.24c.84-1.27,4.21-6.79,2.75-12.1h0c-1.63-5.92-8.57-9-8.86-9.13A1,1,0,0,0,22.11,8c-.19.26-4.57,6.46-2.94,12.38C20.52,25.23,25.5,28.18,27.34,29.12ZM23.28,9.83c1.73.92,5.89,3.49,7,7.45h0c1,3.58-.77,7.48-1.87,9.42a54,54,0,0,1-3.24-9.18l-.29-1.15a1,1,0,0,0-1.94.49L23.21,18a56,56,0,0,0,2.64,7.84c-1.85-1.33-4-3.38-4.75-6.06C20,15.85,22.27,11.5,23.28,9.83Z"/><path d="M92.82,21.31a1,1,0,0,0-1-.64c-.64,0-15.67,1.07-21.85,10.67-3.56,5.53-3.83,13.44-3.37,19.32l-7.22,4.25a1,1,0,0,0,.38,1.85l8.85,1.18L69.27,59H34.66a11.86,11.86,0,0,0,1.48-13.89,11.46,11.46,0,0,0-5.62-4.87,31.63,31.63,0,0,1-10-6.59l-1.09-1.06a3.7,3.7,0,0,0-3.73-.86l-3-3.87a3.46,3.46,0,1,0-6.34-2.61,3.45,3.45,0,0,0-2.73,5.58,3.62,3.62,0,0,0,2.89,1.28A4.28,4.28,0,0,0,7.64,32l2.94,3.81a3.7,3.7,0,0,0,0,3.2l.67,1.36A31.63,31.63,0,0,1,14.4,51.9a11.46,11.46,0,0,0,2.87,6.86l.21.23H17a1,1,0,0,0-1,1c0,18.25,14.39,31,35,31S86,78.25,86,60a1,1,0,0,0-1-1H75.79L76,56.65c5.52-2,12.57-5.53,16.12-11C98.33,36,93.05,21.9,92.82,21.31ZM93,36.92l-1.77-.72A38.49,38.49,0,0,1,79,28.38L77.57,27A36.68,36.68,0,0,1,91.2,22.73,36.55,36.55,0,0,1,93,36.92ZM5.21,29.6a1.47,1.47,0,0,1,1.6-2.31,1,1,0,0,0,.82-.12,1,1,0,0,0,.6-1,1.47,1.47,0,1,1,2.52,1,1,1,0,0,0,0,1.39l0,0L14,32.75l-2,1.48L8.77,30.15a.93.93,0,0,0-.1-.09,1,1,0,0,0-.15-.13l-.17-.08-.18-.06H7.79l-.19.06-.13,0A2,2,0,0,1,5.21,29.6ZM19,57.67l-.23-.25a9.45,9.45,0,0,1-2.35-5.67,33.6,33.6,0,0,0-3.33-12.29L12.4,38.1A1.71,1.71,0,0,1,12.93,36l2.89-2.09A1.71,1.71,0,0,1,18,34l1.09,1.06a33.61,33.61,0,0,0,10.64,7,9.45,9.45,0,0,1,4.65,4,9.81,9.81,0,0,1-2.08,12.39q-.27.22-.56.43a.93.93,0,0,0-.07.08H20.21C19.84,58.63,19.26,58,19,57.67ZM51,89h0c-16.95,0-29.12-8.59-32.22-22H83.22C80.12,80.41,67.95,89,51,89ZM83.6,65H18.4A31.31,31.31,0,0,1,18,61H84A31.32,31.32,0,0,1,83.6,65Zm6.86-20.47C87.1,49.77,80.07,53.11,74.76,55a.94.94,0,0,0-.13.08,1,1,0,0,0-.19.12,3.47,3.47,0,0,0-.23.3,1,1,0,0,0-.06.2,1,1,0,0,0,0,.15L73.78,59H71.63l-1.58-2.52a1,1,0,0,0-.72-.46l-6.44-.86,5.26-3.1a1,1,0,0,0,.49-.95c-.49-5.63-.37-13.44,3-18.69a16.2,16.2,0,0,1,4.2-4.31l1.8,1.72a40.48,40.48,0,0,0,12.79,8.24l2.2.89A16.21,16.21,0,0,1,90.47,44.53Z"/><path d="M76.1,32.9a1,1,0,0,0-1.38.3c-2,3.06-3.13,7.17-3.45,12.2a1,1,0,0,0,.94,1.06h.06a1,1,0,0,0,1-.94c.3-4.69,1.35-8.47,3.14-11.25A1,1,0,0,0,76.1,32.9Z"/><circle cx="84.18" cy="28.09" r="1.5" transform="translate(14.99 83.66) rotate(-57.22)"/><path d="M56.41,31a3.85,3.85,0,1,0,7.4,2.08,3.87,3.87,0,0,0,.1-.54c4-.93,7.44-4.66,8.81-9.55a14.16,14.16,0,0,0-1.6-11.65,3.15,3.15,0,0,0,.28-.65,5,5,0,0,0-3.46-6.15A5,5,0,0,0,64.2,5a4.81,4.81,0,0,0-2.36,3c0,.09,0,.19-.07.29-3.55,1.32-6.59,4.94-7.84,9.39-1.39,5-.3,10.14,2.65,13A3.88,3.88,0,0,0,56.41,31Zm-.56-12.87c1.13-4,3.89-7.24,7-8.2a1,1,0,0,0,.79-1,4.39,4.39,0,0,1,.09-.5,2.83,2.83,0,0,1,1.39-1.74,3,3,0,0,1,2.26-.24,3,3,0,0,1,2.07,3.68,2.08,2.08,0,0,1-.14.28A2.18,2.18,0,0,0,69,11.54a1,1,0,0,0,.21.61A12.14,12.14,0,0,1,70.8,22.49c-1.24,4.4-4.52,7.8-8,8.26a1,1,0,0,0-.85,1,1,1,0,0,0,0,.22,1.85,1.85,0,1,1-3.32-1,.93.93,0,0,0,0-.1,1,1,0,0,0,.12-.25,1,1,0,0,0,0-.13.55.55,0,0,0,0-.4,1,1,0,0,0-.07-.21,1,1,0,0,0-.13-.15,1,1,0,0,0-.13-.15C55.65,27.4,54.58,22.71,55.85,18.17Z"/><path d="M58.62,26.73a1,1,0,0,0,.79-1.18,13.81,13.81,0,0,1,3.16-11.48,1,1,0,1,0-1.49-1.34,15.8,15.8,0,0,0-3.64,13.21,1,1,0,0,0,1,.8Z"/><path d="M81.34,16.68a3.84,3.84,0,1,0-3.84-3.84A3.85,3.85,0,0,0,81.34,16.68Zm0-5.68a1.84,1.84,0,1,1-1.84,1.84A1.84,1.84,0,0,1,81.34,11Z"/><path d="M59.89,39.48a3.84,3.84,0,1,0,3.84,3.84A3.85,3.85,0,0,0,59.89,39.48Zm0,5.68a1.84,1.84,0,1,1,1.84-1.84A1.84,1.84,0,0,1,59.89,45.16Z"/><path d="M39.16,54.27A3.84,3.84,0,1,0,43,50.43,3.85,3.85,0,0,0,39.16,54.27Zm5.68,0A1.84,1.84,0,1,1,43,52.43,1.84,1.84,0,0,1,44.84,54.27Z"/><path d="M14.07,20.46a3.84,3.84,0,1,0-3.84-3.84A3.85,3.85,0,0,0,14.07,20.46Zm0-5.68a1.84,1.84,0,1,1-1.84,1.84A1.84,1.84,0,0,1,14.07,14.78Z"/><path d="M26.55,69.16a1,1,0,0,0-1.74,1q.47.83,1,1.62a1,1,0,0,0,1.67-1.11Q27,69.93,26.55,69.16Z"/><path d="M38.24,80c-.65-.33-1.3-.69-1.93-1.06s-1.49-.94-2.19-1.44a27.93,27.93,0,0,1-3.39-2.89l-.38-.37a7.06,7.06,0,0,1-.62-.67,1,1,0,0,0-1.53,1.29,8.68,8.68,0,0,0,.76.82l.35.35a29.93,29.93,0,0,0,3.64,3.1c.75.54,1.53,1.06,2.34,1.54s1.35.78,2,1.13a1,1,0,1,0,.9-1.78Z"/><path d="M20,49.95a33.77,33.77,0,0,0-.79-5.15,1,1,0,0,0-1.95.46A31.87,31.87,0,0,1,18,50.09,11.46,11.46,0,0,0,20.88,57a1,1,0,0,0,1.48-1.35A9.45,9.45,0,0,1,20,49.95Z"/><path d="M17.69,42.88a1,1,0,0,0,.63-1.27q-.3-.89-.66-1.77a1,1,0,0,0-1.85.75q.33.82.62,1.66a1,1,0,0,0,1.27.63Z"/></svg>