<svg width="618px" height="436px" viewBox="0 0 618 436" version="1.1" xmlns="http://www.w3.org/2000/svg" xmlns:xlink="http://www.w3.org/1999/xlink">
    <defs>
        <polygon id="path-1" points="0.41112958 0.195794872 958.111132 0.195794872 958.111132 344.982308 0.41112958 344.982308"></polygon>
        <polygon id="path-3" points="0.0294899332 0.195525692 348.321399 0.195525692 348.321399 148.632506 0.0294899332 148.632506"></polygon>
        <polygon id="path-5" points="0.063250366 0.195610811 1439.86296 0.195610811 1439.86296 436 0.063250366 436"></polygon>
        <polygon id="path-7" points="0.739994966 0.195066148 244.811477 0.195066148 244.811477 150.533486 0.739994966 150.533486"></polygon>
        <polygon id="path-9" points="0.735766423 0.194092308 83.7722628 0.194092308 83.7722628 37.7041846 0.735766423 37.7041846"></polygon>
        <polygon id="path-11" points="0.063250366 0.297875024 1439.86296 0.297875024 1439.86296 186 0.063250366 186"></polygon>
        <polygon id="path-13" points="0.821911089 0.304675073 437.819671 0.304675073 437.819671 81.7375806 0.821911089 81.7375806"></polygon>
        <polygon id="path-15" points="0.233839088 0.238965517 189.058903 0.238965517 189.058903 153.954567 0.233839088 153.954567"></polygon>
    </defs>
    <g id="Welcome" stroke="none" stroke-width="1" fill="none" fill-rule="evenodd">
        <g id="Desktop" transform="translate(0.000000, -70.000000)">
            <g id="16244-copy" transform="translate(-822.000000, 70.000000)">
                <polygon id="Fill-1" fill="#D6CEF4" points="0 436 1440 436 1440 0 0 0"></polygon>
                <path d="M1049.34307,342 L1054.59854,342 L1054.59854,229.851635 L1049.34307,229.851635 L1049.34307,342 Z M1054.59854,223.829031 L1049.34307,220.496701 L1049.34307,63.364233 C1049.34307,62.4733711 1050.41185,61.7069116 1051.97207,61.3030463 C1051.24439,61.1161481 1050.42195,61 1049.53257,61 C1049.53257,61 1049.53257,61 1049.53383,61 C1052.33212,61 1054.59854,62.0583038 1054.59854,63.364233 L1054.59854,223.829031 L1054.59854,223.829031 Z" id="Fill-3" fill="#949EBD"></path>
                <path d="M1044.08759,63 C1044.56002,61.8609231 1046.73268,61 1049.34307,61 C1046.73268,61 1044.56002,61.8609231 1044.08759,63" id="Fill-4" fill="#BCB7D7"></path>
                <path d="M1044.08759,342 L1047.50219,342 L1047.50219,229.851635 L1044.08759,229.851635 L1044.08759,342 Z M1047.50219,220.496701 L1044.08759,217.404331 L1044.08759,96.9269083 L1047.01035,96.7641831 L1046.93604,96.1763675 L1044.08759,96.3349657 L1044.08759,82.617108 L1045.22874,82.5534329 L1045.15443,81.9656174 L1044.08759,82.0245758 L1044.08759,63.364233 C1044.08759,63.2109411 1044.10971,63.0611867 1044.15128,62.9161489 C1044.46444,61.8248284 1045.90458,61 1047.63488,61 C1048.25765,61 1048.83353,61.1161481 1049.34307,61.3030463 C1048.25057,61.7069116 1047.50219,62.4733711 1047.50219,63.364233 L1047.50219,220.496701 L1047.50219,220.496701 Z" id="Fill-5" fill="#9198B4"></path>
                <path d="M1059.71478,82 L1054.59854,82 L1054.59854,81.4014843 L1059.71478,81.4014843 C1061.41493,81.4014843 1062.78888,80.5683505 1062.78888,79.5436916 L1062.78888,78.9577448 L1059.69501,78.9577448 L1059.69501,75.3564759 L1060.75266,75.3564759 L1060.75266,73.7997367 C1060.75266,72.8056021 1061.91904,72 1063.3523,72 C1064.77567,72 1065.94205,72.8056021 1065.94205,73.7997367 L1065.94205,75.3564759 L1066.86131,75.3564759 L1066.86131,77.6451999 L1063.54999,78.6920038 L1063.77733,78.9577448 L1063.77733,79.5436916 C1063.77733,80.8987311 1061.95858,82 1059.71478,82 M1066.86131,78.9577448 L1064.84487,78.9577448 L1066.86131,78.3203256 L1066.86131,78.9577448" id="Fill-6" fill="#8B8CA2"></path>
                <path d="M1059.71478,97 L1054.59854,97 L1054.59854,96.4015201 L1059.71478,96.4015201 C1061.41493,96.4015201 1062.78888,95.5684362 1062.78888,94.5444371 L1062.85807,94.8394877 L1063.75756,94.7634808 C1063.57964,96.0149021 1061.83008,97 1059.71478,97 M1062.78888,94.2416063 L1062.78888,93.9573284 L1059.69501,93.9573284 L1059.69501,90.3562751 L1060.75266,90.3562751 L1060.75266,88.8002274 C1060.75266,87.8055539 1061.91904,87 1063.3523,87 C1064.77567,87 1065.94205,87.8055539 1065.94205,88.8002274 L1065.94205,90.3562751 L1066.86131,90.3562751 L1066.86131,93.8986774 L1066.1694,93.9573284 L1063.77733,93.9573284 L1063.77733,94.1584176 L1062.78888,94.2416063" id="Fill-7" fill="#8B8CA2"></path>
                <polyline id="Fill-8" fill="#8B8CA2" points="1063.83513 80 1063.5964 79.7372609 1063.35766 79.4739287 1066.83489 78.4366135 1101.89781 68 1101.89781 68.6690061 1066.83489 79.1056195 1064.71742 79.7372609 1063.83513 80"></polyline>
                <polyline id="Fill-9" fill="#8B8CA2" points="1063.50623 95 1063.43194 94.684833 1063.35766 94.3671088 1063.43194 94.3613553 1064.4931 94.2724948 1067.06109 94.0576954 1067.80389 93.9950455 1103.64964 91 1103.64964 91.6450376 1064.47187 94.9188109 1063.50623 95"></polyline>
                <path d="M1039.00755,83 C1037.05986,83 1035.40004,82.0078201 1035.23489,80.700391 L1035.16015,80.1047165 L1035.33914,79.8230694 L1032.11914,78.9292522 L1031.82482,76.5997067 L1032.68564,76.5520528 L1032.48543,74.969086 C1032.3581,73.9579668 1033.33333,73.0788123 1034.6647,73.0054985 C1034.72467,73.0018328 1034.78464,73 1034.84369,73 C1036.10032,73 1037.18442,73.7368035 1037.30713,74.7027126 L1037.5055,76.2856794 L1038.49087,76.231305 L1038.95311,79.8945503 L1036.08002,80.0540078 L1036.15475,80.6496823 C1036.28023,81.6381965 1037.53502,82.3884409 1039.00755,82.3884409 C1039.0869,82.3884409 1039.16717,82.3859971 1039.24836,82.3817204 L1042.89739,82.1794966 L1044.01009,82.1184018 L1044.08759,82.7275171 L1042.89739,82.7934995 L1039.32494,82.9908358 C1039.21883,82.9969453 1039.11273,83 1039.00755,83 M1032.28706,80.263563 L1032.20494,79.615347 L1034.16647,80.1597019 L1032.28706,80.263563" id="Fill-10" fill="#8B8CA2"></path>
                <path d="M1042.50843,97 C1040.67515,97 1039.09744,96.1195161 1038.78282,94.9243554 L1039.63442,94.9555175 L1039.6584,94.6530612 C1039.78573,95.6404742 1041.03959,96.3895882 1042.5112,96.3895882 C1042.59055,96.3895882 1042.67082,96.3871441 1042.75201,96.3828669 L1044.54285,96.2832702 L1047.51374,96.118905 L1047.59124,96.7280948 L1044.54285,96.8967371 L1042.82859,96.9914457 C1042.72156,96.9969449 1042.61453,97 1042.50843,97 M1039.61965,94.3432726 L1038.68964,94.3096664 L1038.6638,94.1049737 L1036.43379,94.2284003 L1035.78425,94.2045705 L1035.32847,90.6001466 L1036.18837,90.5524869 L1035.99,88.9693267 C1035.86175,87.9580838 1036.8379,87.0782109 1038.16835,87.0048882 C1038.22832,87.0018331 1038.28829,87 1038.34734,87 C1039.60397,87 1040.68807,87.7368936 1040.80986,88.7023097 L1041.01007,90.2854699 L1041.99452,90.2310888 L1042.45676,93.8947819 L1039.58367,94.0542588 L1039.61965,94.3432726" id="Fill-11" fill="#8B8CA2"></path>
                <polyline id="Fill-12" fill="#8B8CA2" points="1036.67301 80 1035.74268 79.7867151 982.773723 67.624867 982.773723 67 1037.08029 79.4690937 1036.87612 79.734835 1036.67301 80"></polyline>
                <polyline id="Fill-13" fill="#8B8CA2" points="1040.52945 95 1039.58053 94.9743267 984.525547 93.5044047 984.525547 93 1036.23925 94.3813239 1036.96303 94.4009565 1039.47669 94.4679084 1040.513 94.4955953 1040.58394 94.4976089 1040.55618 94.750818 1040.52945 95"></polyline>
                <g id="Group-21" transform="translate(78.832117, 0.000000)">
                    <mask id="mask-2" fill="white">
                        <use xlink:href="#path-1"></use>
                    </mask>
                    <g id="Clip-19"></g>
                    <polyline id="Fill-20" fill="#63B6B1" mask="url(#mask-2)" points="958.111132 153.203 958.111132 344.982308 487.272887 344.982308 487.272887 153.203 502.452002 153.203 502.452002 -0.825641026 903.293855 -0.825641026 903.293855 153.203 958.111132 153.203"></polyline>
                </g>
                <polygon id="Fill-22" fill="#D7D8A7" points="565.839416 203 1037.08029 203 1037.08029 158 565.839416 158"></polygon>
                <polygon id="Fill-23" fill="#254856" points="560.583942 346 1037.08029 346 1037.08029 246 560.583942 246"></polygon>
                <polygon id="Fill-24" fill="#254856" points="508.029197 162 1045.83942 162 1045.83942 152 508.029197 152"></polygon>
                <polygon id="Fill-25" fill="#9BA081" points="786.569343 169 1037.08029 169 1037.08029 162 786.569343 162"></polygon>
                <polygon id="Fill-26" fill="#508A87" points="788.321168 38 984.525547 38 984.525547 32 788.321168 32"></polygon>
                <polygon id="Fill-35" fill="#254856" points="564.087591 32 991.532847 32 991.532847 22 564.087591 22"></polygon>
                <polygon id="Fill-36" fill="#848363" points="515.036496 247 1059.85401 247 1059.85401 230 515.036496 230"></polygon>
                <polyline id="Fill-37" fill="#D8D6B8" points="1059.85401 230 529.051095 230 529.051095 211 1035.28653 211 1059.85401 230"></polyline>
                <polygon id="Fill-38" fill="#19323A" points="863.649635 316 1026.56934 316 1026.56934 258 863.649635 258"></polygon>
                <path d="M1024.81752,316 L1023.52703,316 L977.500712,271.525861 C977.802875,270.907164 978.096644,270.298419 978.380971,269.700209 L982.787512,264.650546 L1024.81752,305.259151 L1024.81752,316 M975.754882,269.838347 L974.106626,268.246243 C974.028987,264.975991 974.314363,260.469517 974.49692,258 L975.904915,258 L979.231853,261.214645 C978.132316,264.134869 976.945698,267.119478 975.754882,269.838347 M979.334672,267.076749 C979.786867,266.106268 980.342931,264.623036 980.944109,262.868795 L982.256629,264.13721 C980.709093,265.880915 979.596966,267.036361 979.334672,267.076749 M972.87909,267.059189 L963.50365,258 L973.300859,258 C973.113056,261.149674 972.954631,264.324516 972.87909,267.059189" id="Fill-39" fill="#233C43"></path>
                <path d="M1026.56934,301 L985.708122,262.424132 L987.807516,260.074886 L992.921315,258 L1005.70367,258 L1026.56934,277.693941 L1026.56934,301 M985.16617,261.912692 L982.905366,259.777808 C983.095637,259.195302 983.286977,258.599981 983.478317,258 L988.563255,258 C987.39063,259.365394 986.231901,260.702827 985.16617,261.912692 M988.808042,258.953562 L989.659985,258 L991.422664,258 L988.808042,258.953562 M981.253857,258.219022 L981.021898,258 L981.335097,258 C981.307304,258.073396 981.280581,258.145044 981.253857,258.219022" id="Fill-40" fill="#233C43"></path>
                <polyline id="Fill-41" fill="#233C43" points="1026.56934 273 1010.80292 258 1018.64453 258 1026.56934 265.533988 1026.56934 273"></polyline>
                <path d="M863.649635,317 L1030.07299,317 L1030.07299,256 L863.649635,256 L863.649635,317 Z M867.862858,314.633067 L1025.85977,314.633067 L1025.85977,258.366933 L867.862858,258.366933 L867.862858,314.633067 Z" id="Fill-42" fill="#4F1622"></path>
                <path d="M755.036496,346 L755.036496,274.248062 C755.036496,259.77465 775.46868,248 800.583942,248 C825.699204,248 846.131387,259.77465 846.131387,274.248062 L846.131387,346 L755.036496,346" id="Fill-43" fill="#19323A"></path>
                <polygon id="Fill-46" fill="#280C12" points="802.335766 345 842.627737 345 842.627737 305 802.335766 305"></polygon>
                <path d="M797.309066,345.226615 L842.989937,345.226615 L842.989937,307.776861 L797.309066,307.776861 L797.309066,345.226615 Z M752.923519,345.226615 L794.035675,345.226615 L794.035675,307.776861 L752.923519,307.776861 L752.923519,345.226615 Z M794.035675,248.87565 L794.035675,301.648633 L752.923519,301.648633 L752.923519,274.195451 C752.923519,260.924028 771.033978,250.001159 794.035675,248.87565 L794.035675,248.87565 Z M797.956204,248.773385 C822.788319,248.773385 842.989937,260.177433 842.989937,274.195451 L842.989937,301.648633 L797.309066,301.648633 L797.309066,248.782843 C797.525826,248.78107 797.739444,248.773385 797.956204,248.773385 L797.956204,248.773385 Z M797.956204,247 C771.350217,247 749.781022,259.176062 749.781022,274.195451 L749.781022,347 L846.131387,347 L846.131387,274.195451 C846.131387,259.176062 824.562191,247 797.956204,247 L797.956204,247 Z" id="Fill-47" fill="#4F1622"></path>
                <path d="M884.671533,61.872414 L884.671533,148 L812.846715,148 L812.846715,61.872414 C812.846715,52.9469693 823.551006,45.3751185 838.226811,42.869492 C840,42.5674455 841.838348,42.3428317 843.727969,42.1950594 C844.667972,42.1241287 845.607976,42.0709307 846.569343,42.0354653 C847.295709,42.0118218 848.023144,42 848.759124,42 C856.076197,42 862.901905,43.2176435 868.585722,45.3106898 C878.2731,48.8749568 884.671533,54.9684938 884.671533,61.872414" id="Fill-55" fill="#4A5568"></path>
                <polyline id="Fill-56" fill="#3F4857" points="867.153285 148 847.901863 148 812.846715 107.332772 812.846715 85 867.153285 148"></polyline>
                <path d="M884.671533,86 L846.131387,42.0351157 C846.866102,42.0117052 847.601898,42 848.346338,42 C855.747515,42 862.651679,43.2056398 868.400828,45.2780527 L884.671533,63.8361266 L884.671533,86" id="Fill-57" fill="#3F4857"></path>
                <path d="M884.671533,97 L839.124088,42.6768957 C840.863019,42.3737461 842.665852,42.1483119 844.518967,42 L884.671533,89.8988243 L884.671533,97" id="Fill-58" fill="#3F4857"></path>
                <path d="M849.8121,146.643555 L880.540045,146.643555 L880.540045,125.503297 L849.8121,125.503297 L849.8121,146.643555 Z M815.226379,146.643555 L845.76634,146.643555 L845.76634,125.503297 L815.226379,125.503297 L815.226379,146.643555 Z M845.76634,43.3994502 L845.76634,60.18323 L815.38131,60.18323 C816.906862,51.1497979 829.791941,43.9856159 845.76634,43.3994502 Z M880.385114,60.18323 L849.8121,60.18323 L849.8121,43.3912026 C865.875327,43.927883 878.853364,51.1144512 880.385114,60.18323 Z M849.8121,79.4277275 L849.8121,61.8574842 L880.533847,61.8574842 L880.540045,61.9829649 L880.540045,79.4277275 L849.8121,79.4277275 Z M849.8121,101.129408 L880.540045,101.129408 L880.540045,81.1025708 L849.8121,81.1025708 L849.8121,101.129408 Z M849.8121,123.828454 L880.540045,123.828454 L880.540045,102.804251 L849.8121,102.804251 L849.8121,123.828454 Z M815.226379,123.828454 L845.76634,123.828454 L845.76634,102.804251 L815.226379,102.804251 L815.226379,123.828454 Z M815.226379,101.129408 L845.76634,101.129408 L845.76634,81.1025708 L815.226379,81.1025708 L815.226379,101.129408 Z M815.231543,61.8574842 L845.76634,61.8574842 L845.76634,79.4277275 L815.226379,79.4277275 L815.226379,61.9829649 L815.231543,61.8574842 Z M847.883728,41 L847.882695,41 C827.565069,41 811.094891,50.3939682 811.094891,61.9829649 L811.094891,149 L884.671533,149 L884.671533,61.9829649 C884.671533,50.3939682 868.201355,41 847.883728,41 L847.883728,41 Z" id="Fill-59" fill="#4F1622"></path>
                <path d="M975.766423,61.872414 L975.766423,148 L903.941606,148 L903.941606,61.872414 C903.941606,52.9469693 914.645737,45.3751185 929.322393,42.869492 C931.094487,42.5674455 932.932807,42.3428317 934.8224,42.1950594 C935.762389,42.1241287 936.702379,42.0709307 937.6648,42.0354653 C938.390088,42.0118218 939.117511,42 939.853481,42 C947.171513,42 953.997119,43.2176435 959.679783,45.3106898 C969.367017,48.8749568 975.766423,54.9684938 975.766423,61.872414" id="Fill-60" fill="#4A5568"></path>
                <polyline id="Fill-61" fill="#3F4857" points="958.248175 148 938.997133 148 903.941606 107.332772 903.941606 85 958.248175 148"></polyline>
                <path d="M975.766423,86 L937.226277,42.0351157 C937.959912,42.0117052 938.695708,42 939.440148,42 C946.842406,42 953.74657,43.2056398 959.494638,45.2780527 L975.766423,63.8361266 L975.766423,86" id="Fill-62" fill="#3F4857"></path>
                <path d="M974.014599,97 L928.467153,42.6768957 C930.205038,42.3737461 932.00787,42.1483119 933.860985,42 L974.014599,89.8988243 L974.014599,97" id="Fill-63" fill="#3F4857"></path>
                <g id="Group-77" transform="translate(627.153285, 0.000000)">
                    <mask id="mask-4" fill="white">
                        <use xlink:href="#path-3"></use>
                    </mask>
                    <g id="Clip-65"></g>
                    <path d="M312.775497,146.276775 L344.108551,146.276775 L344.108551,125.142921 L312.775497,125.142921 L312.775497,146.276775 Z M277.507644,146.276775 L308.650066,146.276775 L308.650066,125.142921 L277.507644,125.142921 L277.507644,146.276775 Z M308.650066,43.0639447 L308.650066,59.8426403 L277.666679,59.8426403 C279.222273,50.8119447 292.360038,43.6499328 308.650066,43.0639447 Z M343.949516,59.8426403 L312.775497,59.8426403 L312.775497,43.0556996 C329.153996,43.5922174 342.388656,50.7766087 343.949516,59.8426403 Z M312.775497,79.0813083 L312.775497,61.5163874 L344.103285,61.5163874 L344.108551,61.64183 L344.108551,79.0813083 L312.775497,79.0813083 Z M312.775497,100.776415 L344.108551,100.776415 L344.108551,80.7556443 L312.775497,80.7556443 L312.775497,100.776415 Z M312.775497,123.468585 L344.108551,123.468585 L344.108551,102.450751 L312.775497,102.450751 L312.775497,123.468585 Z M277.507644,123.468585 L308.650066,123.468585 L308.650066,102.450751 L277.507644,102.450751 L277.507644,123.468585 Z M277.507644,100.776415 L308.650066,100.776415 L308.650066,80.7556443 L277.507644,80.7556443 L277.507644,100.776415 Z M277.51291,61.5163874 L308.650066,61.5163874 L308.650066,79.0813083 L277.507644,79.0813083 L277.507644,61.64183 L277.51291,61.5163874 Z M310.808098,40.6652213 L310.807044,40.6652213 C290.090366,40.6652213 273.294796,50.0563439 273.294796,61.64183 L273.294796,148.632506 L348.321399,148.632506 L348.321399,61.64183 C348.321399,50.0563439 331.525829,40.6652213 310.808098,40.6652213 L310.808098,40.6652213 Z" id="Fill-64" fill="#4F1622" mask="url(#mask-4)"></path>
                    <path d="M253.121575,-66.3426917 L253.121575,19.4701186 L182.303607,19.4701186 L182.303607,-66.3426917 C182.303607,-75.236166 192.856791,-82.7803953 207.327922,-85.2774704 C209.076254,-85.5778261 210.888831,-85.8016206 212.751963,-85.9488538 C213.67879,-86.0195257 214.605616,-86.0719407 215.553507,-86.1078656 C216.269691,-86.1314229 216.985875,-86.1426126 217.712591,-86.1426126 C224.927093,-86.1426126 231.657117,-84.93 237.259151,-82.8451779 C246.812836,-79.293913 253.121575,-73.2220158 253.121575,-66.3426917" id="Fill-71" fill="#4A5568" mask="url(#mask-4)"></path>
                    <polyline id="Fill-72" fill="#3F4857" mask="url(#mask-4)" points="235.721462 19.4701186 216.785765 19.4701186 200.420958 0.195525692 219.356655 0.195525692 235.721462 19.4701186"></polyline>
                    <path d="M219.682098,18.2940198 L251.015152,18.2940198 L251.015152,-2.84042292 L219.682098,-2.84042292 L219.682098,18.2940198 Z M184.415297,18.2940198 L215.556667,18.2940198 L215.556667,-2.84042292 L184.415297,-2.84042292 L184.415297,18.2940198 Z M215.556667,-84.9188103 L215.556667,-68.1407036 L184.573279,-68.1407036 C186.128873,-77.1713992 199.266638,-84.3328221 215.556667,-84.9188103 Z M250.85717,-68.1407036 L219.682098,-68.1407036 L219.682098,-84.9270553 C236.061649,-84.3911265 249.294203,-77.2067352 250.85717,-68.1407036 Z M219.682098,-48.9020356 L219.682098,-66.4663676 L251.008832,-66.4663676 L251.015152,-66.3415138 L251.015152,-48.9020356 L219.682098,-48.9020356 Z M219.682098,-27.2063399 L251.015152,-27.2063399 L251.015152,-47.2276996 L219.682098,-47.2276996 L219.682098,-27.2063399 Z M219.682098,-4.51475889 L251.015152,-4.51475889 L251.015152,-25.5325929 L219.682098,-25.5325929 L219.682098,-4.51475889 Z M184.415297,-4.51475889 L215.556667,-4.51475889 L215.556667,-25.5325929 L184.415297,-25.5325929 L184.415297,-4.51475889 Z M184.415297,-27.2063399 L215.556667,-27.2063399 L215.556667,-47.2276996 L184.415297,-47.2276996 L184.415297,-27.2063399 Z M184.420563,-66.4663676 L215.556667,-66.4663676 L215.556667,-48.9020356 L184.415297,-48.9020356 L184.415297,-66.3415138 L184.420563,-66.4663676 Z M217.714698,-87.3187115 L217.714698,-87.3187115 C196.996967,-87.3187115 180.20245,-77.9264111 180.20245,-66.3415138 L180.20245,20.6491621 L255.227999,20.6491621 L255.227999,-66.3415138 C255.227999,-77.9264111 238.433482,-87.3187115 217.714698,-87.3187115 L217.714698,-87.3187115 Z" id="Fill-73" fill="#4F1622" mask="url(#mask-4)"></path>
                    <path d="M344.471909,-66.3426917 L344.471909,19.4701186 L273.653941,19.4701186 L273.653941,-66.3426917 C273.653941,-75.236166 284.207125,-82.7803953 298.678256,-85.2774704 C300.426588,-85.5778261 302.239166,-85.8016206 304.102297,-85.9488538 C305.029124,-86.0195257 305.95595,-86.0719407 306.904894,-86.1078656 C307.620025,-86.1314229 308.337262,-86.1426126 309.062925,-86.1426126 C316.277427,-86.1426126 323.007451,-84.93 328.611592,-82.8451779 C338.16317,-79.293913 344.471909,-73.2220158 344.471909,-66.3426917" id="Fill-74" fill="#4A5568" mask="url(#mask-4)"></path>
                    <polyline id="Fill-75" fill="#3F4857" mask="url(#mask-4)" points="327.072849 19.4701186 308.136099 19.4701186 291.771292 0.195525692 310.706989 0.195525692 327.072849 19.4701186"></polyline>
                    <path d="M311.032432,18.2940198 L342.365486,18.2940198 L342.365486,-2.84042292 L311.032432,-2.84042292 L311.032432,18.2940198 Z M275.765631,18.2940198 L306.907001,18.2940198 L306.907001,-2.84042292 L275.765631,-2.84042292 L275.765631,18.2940198 Z M306.907001,-84.9188103 L306.907001,-68.1407036 L275.923613,-68.1407036 C277.479207,-77.1713992 290.618025,-84.3328221 306.907001,-84.9188103 Z M342.207504,-68.1407036 L311.032432,-68.1407036 L311.032432,-84.9270553 C327.411983,-84.3911265 340.645591,-77.2067352 342.207504,-68.1407036 Z M311.032432,-48.9020356 L311.032432,-66.4663676 L342.36022,-66.4663676 L342.365486,-66.3415138 L342.365486,-48.9020356 L311.032432,-48.9020356 Z M311.032432,-27.2063399 L342.365486,-27.2063399 L342.365486,-47.2276996 L311.032432,-47.2276996 L311.032432,-27.2063399 Z M311.032432,-4.51475889 L342.365486,-4.51475889 L342.365486,-25.5325929 L311.032432,-25.5325929 L311.032432,-4.51475889 Z M275.765631,-4.51475889 L306.907001,-4.51475889 L306.907001,-25.5325929 L275.765631,-25.5325929 L275.765631,-4.51475889 Z M275.765631,-27.2063399 L306.907001,-27.2063399 L306.907001,-47.2276996 L275.765631,-47.2276996 L275.765631,-27.2063399 Z M275.770897,-66.4663676 L306.907001,-66.4663676 L306.907001,-48.9020356 L275.765631,-48.9020356 L275.765631,-66.3415138 L275.770897,-66.4663676 Z M309.065032,-87.3187115 L309.065032,-87.3187115 C288.347301,-87.3187115 271.552784,-77.9264111 271.552784,-66.3415138 L271.552784,20.6491621 L346.578333,20.6491621 L346.578333,-66.3415138 C346.578333,-77.9264111 329.783816,-87.3187115 309.065032,-87.3187115 L309.065032,-87.3187115 Z" id="Fill-76" fill="#4F1622" mask="url(#mask-4)"></path>
                </g>
                <polygon id="Fill-78" fill="#C1C199" points="793.576642 198 839.124088 198 839.124088 190 793.576642 190"></polygon>
                <polygon id="Fill-79" fill="#C1C199" points="844.379562 198 889.927007 198 889.927007 190 844.379562 190"></polygon>
                <polygon id="Fill-80" fill="#C1C199" points="900.437956 198 945.985401 198 945.985401 190 900.437956 190"></polygon>
                <polygon id="Fill-81" fill="#C1C199" points="952.992701 198 998.540146 198 998.540146 190 952.992701 190"></polygon>
                <polygon id="Fill-82" fill="#C1C199" points="975.766423 188 1021.31387 188 1021.31387 180 975.766423 180"></polygon>
                <polygon id="Fill-83" fill="#C1C199" points="923.211679 188 968.759124 188 968.759124 180 923.211679 180"></polygon>
                <polygon id="Fill-84" fill="#C1C199" points="945.985401 177 991.532847 177 991.532847 169 945.985401 169"></polygon>
                <polygon id="Fill-85" fill="#C1C199" points="1007.29927 198 1037.08029 198 1037.08029 190 1007.29927 190"></polygon>
                <g id="Group-89" transform="translate(348.613139, 0.000000)" fill="#C1C199">
                    <polygon id="Fill-86" points="473.105491 187.61084 519.699006 187.61084 519.699006 179.348096 473.105491 179.348096"></polygon>
                </g>
                <g id="Group-594">
                    <mask id="mask-6" fill="white">
                        <use xlink:href="#path-5"></use>
                    </mask>
                    <g id="Clip-591"></g>
                    <polygon id="Fill-592" fill="#6E5977" mask="url(#mask-6)" points="0.063250366 436 1439.86296 436 1439.86296 380.536086 0.063250366 380.536086"></polygon>
                    <polygon id="Fill-593" fill="#D67954" mask="url(#mask-6)" points="1102.52767 343.661681 1439.86296 343.661681 1439.86296 0.195610811 1102.52767 0.195610811"></polygon>
                </g>
                <polygon id="Fill-595" fill="#ED956C" points="1091.38686 54 1440 54 1440 41 1091.38686 41"></polygon>
                <polygon id="Fill-596" fill="#ED956C" points="1091.38686 164 1440 164 1440 151 1091.38686 151"></polygon>
                <path d="M1226.27737,343 L1154.45255,343 L1154.45255,247.663051 C1154.45255,236.80344 1170.53274,228 1190.36496,228 C1210.19719,228 1226.27737,236.80344 1226.27737,247.663051 L1226.27737,343" id="Fill-597" fill="#2C373A"></path>
                <path d="M1156.20438,247 C1157.23097,237.533126 1171.76192,230 1189.48905,230 C1207.21618,230 1221.74714,237.533126 1222.77372,247 L1156.20438,247" id="Fill-598" fill="#B7E0EA"></path>
                <path d="M1190.36496,228 C1170.53274,228 1154.45255,236.915971 1154.45255,247.914395 L1154.45255,248 L1226.27737,248 L1226.27737,247.914395 C1226.27737,236.915971 1210.19719,228 1190.36496,228 M1190.36496,230.377315 C1206.40227,230.377315 1219.6845,237.031299 1221.72132,245.622091 L1159.00861,245.622091 C1161.03471,237.031299 1174.32766,230.377315 1190.36496,230.377315" id="Fill-599" fill="#51202C"></path>
                <polygon id="Fill-600" fill="#662834" points="1154.45255 344 1226.27737 344 1226.27737 248 1154.45255 248"></polygon>
                <path d="M1145.63593,239 L1100.14599,239 L1100.14599,202 L1145.63593,202 C1150.50064,202 1154.45255,204.194748 1154.45255,206.9024 L1154.45255,234.103564 C1154.45255,236.805252 1150.50064,239 1145.63593,239" id="Fill-601" fill="#9B624B"></path>
                <path d="M1076.51494,228 C1073.1283,228 1070.36496,226.429094 1070.36496,224.498311 L1070.36496,197.502281 C1070.36496,195.570906 1073.1283,194 1076.51494,194 L1130.78433,194 C1134.17097,194 1136.93431,195.570906 1136.93431,197.502281 L1136.93431,224.498311 C1136.93431,226.429094 1134.17097,228 1130.78433,228 L1076.51494,228" id="Fill-602" fill="#EBFBFF"></path>
                <path d="M1129.88823,193 L1073.9074,193 C1069.04229,193 1065.10949,195.193065 1065.10949,197.899059 L1065.10949,225.101538 C1065.10949,227.806935 1069.04229,230 1073.9074,230 L1129.88823,230 C1134.75333,230 1138.68613,227.806935 1138.68613,225.101538 L1138.68613,197.899059 C1138.68613,195.193065 1134.75333,193 1129.88823,193 Z M1129.88823,195.73999 C1132.03144,195.73999 1133.76745,196.708589 1133.76745,197.899059 L1133.76745,225.101538 C1133.76745,226.291411 1132.03144,227.26001 1129.88823,227.26001 L1073.9074,227.26001 C1071.76418,227.26001 1070.02817,226.291411 1070.02817,225.101538 L1070.02817,197.899059 C1070.02817,196.708589 1071.76418,195.73999 1073.9074,195.73999 L1129.88823,195.73999 L1129.88823,195.73999 Z" id="Fill-603" fill="#92AAAD"></path>
                <polygon id="Fill-604" fill="#EBFBFF" points="1058.10219 175.57 1163.21168 175.57 1163.21168 175.43 1058.10219 175.43"></polygon>
                <polygon id="Fill-605" fill="#92AAAD" points="1058.10219 177 1164.9635 177 1164.9635 174 1058.10219 174"></polygon>
                <polygon id="Fill-606" fill="#EBFBFF" points="1079.12409 193 1080.87591 193 1080.87591 177 1079.12409 177"></polygon>
                <polygon id="Fill-607" fill="#92AAAD" points="1079.12409 193 1080.87591 193 1080.87591 177 1079.12409 177"></polygon>
                <polygon id="Fill-608" fill="#EBFBFF" points="1121.16788 193 1122.91971 193 1122.91971 177 1121.16788 177"></polygon>
                <polygon id="Fill-609" fill="#92AAAD" points="1121.16788 193 1122.91971 193 1122.91971 177 1121.16788 177"></polygon>
                <polygon id="Fill-610" fill="#33AF5C" points="1098.39416 224 1110.65693 224 1110.65693 197 1098.39416 197"></polygon>
                <polygon id="Fill-611" fill="#33AF5C" points="1077.37226 214 1126.42336 214 1126.42336 207 1077.37226 207"></polygon>
                <polygon id="Fill-612" fill="#9B8EA5" points="1254.30657 316 1434.74453 316 1434.74453 174 1254.30657 174"></polygon>
                <polygon id="Fill-613" fill="#7E7289" points="1338.39416 223 1438.24818 223 1438.24818 218 1338.39416 218"></polygon>
                <polygon id="Fill-614" fill="#7E7289" points="1329.63504 214 1434.74453 214 1434.74453 209 1329.63504 209"></polygon>
                <polyline id="Fill-615" fill="#7E7289" points="1307.73866 272.684047 1307.73866 241.089609 1266.92613 241.089609 1266.92613 220 1250.80292 220 1250.80292 317 1266.92613 317 1266.92613 315.815557 1347.15328 315.815557 1347.15328 272.684047 1307.73866 272.684047"></polyline>
                <path d="M1315.62044,273 L1308.70486,273 L1308.70486,241.520819 L1267.39224,241.520819 L1267.39224,220.508145 L1264.81752,220.508145 L1264.81752,201.875779 C1264.81752,193.637933 1273.3822,186.509993 1285.85152,183.084097 L1315.62044,219.077247 L1315.62044,273 M1315.62044,211.477847 L1291.14992,181.895123 C1293.71401,181.443136 1296.40576,181.138664 1299.172,181 L1315.62044,200.888017 L1315.62044,211.477847" id="Fill-616" fill="#8D8E9E"></path>
                <polyline id="Fill-617" fill="#7C7D8D" points="1315.62044 315 1264.81752 315 1264.81752 221 1267.39224 221 1267.39224 241.948958 1308.70486 241.948958 1308.70486 273.332687 1315.62044 273.332687 1315.62044 315"></polyline>
                <path d="M1313.86861,219 L1284.08759,183.18315 C1285.79058,182.71811 1287.55743,182.321183 1289.38814,182 L1313.86861,211.437823 L1313.86861,219" id="Fill-618" fill="#A7ADBA"></path>
                <path d="M1315.62044,201 L1299.85401,181.085672 C1300.93502,181.028951 1302.03643,181 1303.14803,181 C1307.53326,181 1311.73492,181.450812 1315.62044,182.276219 L1315.62044,201" id="Fill-619" fill="#A7ADBA"></path>
                <path d="M1434.74453,174 L1254.30657,174 L1254.30657,315 L1265.7843,315 L1265.7843,201.775352 C1265.7843,190.217115 1282.49639,180.846925 1303.11847,180.846925 C1323.74055,180.846925 1340.46314,190.217115 1340.46314,201.775352 L1340.46314,315 L1356.17671,315 L1356.17671,201.775352 C1356.17671,190.217115 1372.88879,180.846925 1393.51087,180.846925 C1414.13295,180.846925 1430.85555,190.217115 1430.85555,201.775352 L1430.85555,315 L1434.74453,315 L1434.74453,174" id="Fill-620" fill="#662834"></path>
                <polygon id="Fill-621" fill="#662834" points="1266.56934 316 1340.14599 316 1340.14599 315 1266.56934 315"></polygon>
                <polygon id="Fill-622" fill="#662834" points="1355.91241 316 1429.48905 316 1429.48905 315 1355.91241 315"></polygon>
                <path d="M1254.30657,317 L1438.24818,317 L1438.24818,173 L1254.30657,173 L1254.30657,317 Z M1258.5028,314.64703 L1434.05195,314.64703 L1434.05195,175.35297 L1258.5028,175.35297 L1258.5028,314.64703 Z" id="Fill-623" fill="#51202C"></path>
                <polygon id="Fill-624" fill="#522D36" points="1254.30657 179 1315.62044 179 1315.62044 175 1254.30657 175"></polygon>
                <polygon id="Fill-625" fill="#E2A656" points="1254.30657 318 1438.24818 318 1438.24818 317 1254.30657 317"></polygon>
                <polygon id="Fill-626" fill="#58222E" points="1221.0219 342 1226.27737 342 1226.27737 248 1221.0219 248"></polygon>
                <path d="M1215.76642,254.936508 L1215.76642,286.063492 C1215.76642,287.685032 1213.39486,289 1210.47276,289 L1172.00899,289 C1169.08689,289 1166.71533,287.685032 1166.71533,286.063492 L1166.71533,254.936508 C1166.71533,253.315556 1169.08689,252 1172.00899,252 L1210.47276,252 C1213.39486,252 1215.76642,253.315556 1215.76642,254.936508" id="Fill-627" fill="#B7E0EA"></path>
                <path d="M1210.85194,289 L1192.9927,289 L1192.9927,252 L1210.85194,252 C1213.56473,252 1215.76642,253.315556 1215.76642,254.936508 L1215.76642,286.063492 C1215.76642,287.685032 1213.56473,289 1210.85194,289" id="Fill-628" fill="#9EBFC7"></path>
                <path d="M1215.76642,301.936508 L1215.76642,333.063492 C1215.76642,334.684444 1213.39486,336 1210.47276,336 L1172.00899,336 C1169.08689,336 1166.71533,334.684444 1166.71533,333.063492 L1166.71533,301.936508 C1166.71533,300.315556 1169.08689,299 1172.00899,299 L1210.47276,299 C1213.39486,299 1215.76642,300.315556 1215.76642,301.936508" id="Fill-629" fill="#B7E0EA"></path>
                <path d="M1210.85194,336 L1192.9927,336 L1192.9927,299 L1210.85194,299 C1213.56473,299 1215.76642,300.315556 1215.76642,301.936508 L1215.76642,333.063492 C1215.76642,334.684444 1213.56473,336 1210.85194,336" id="Fill-630" fill="#9EBFC7"></path>
                <path d="M1164.96012,278.090689 C1164.87601,279.19363 1163.23121,280.048036 1161.29669,279.997902 C1159.36218,279.947235 1157.8669,279.012295 1157.96036,277.908821 C1158.04447,276.805881 1159.68927,275.951475 1161.62379,276.002142 C1163.54895,276.052276 1165.04423,276.987215 1164.96012,278.090689" id="Fill-631" fill="#526468"></path>
                <path d="M1164.96012,312.090689 C1164.87601,313.19363 1163.23121,314.048036 1161.29669,313.997902 C1159.36218,313.947235 1157.8669,313.012295 1157.96036,311.908821 C1158.04447,310.805881 1159.68927,309.951475 1161.62379,310.002142 C1163.54895,310.052276 1165.04423,310.987215 1164.96012,312.090689" id="Fill-632" fill="#526468"></path>
                <path d="M1160.58628,313 L1160.58628,313 C1160.10044,313 1159.70803,312.500165 1159.70803,311.884298 L1159.70803,278.115702 C1159.70803,277.49924 1160.10044,277 1160.58628,277 C1161.06745,277 1161.45985,277.49924 1161.45985,278.115702 L1161.45985,311.884298 C1161.45985,312.500165 1161.06745,313 1160.58628,313" id="Fill-633" fill="#798D93"></path>
                <polygon id="Fill-634" fill="#4A5568" points="1166.71533 147 1245.54745 147 1245.54745 65 1166.71533 65"></polygon>
                <polyline id="Fill-635" fill="#5E6A7D" points="1215.76642 146 1187.01451 146 1166.71533 130.685899 1166.71533 109 1215.76642 146"></polyline>
                <polyline id="Fill-636" fill="#5E6A7D" points="1231.53285 146 1220.44844 146 1168.46715 106.441176 1168.46715 98 1231.53285 146"></polyline>
                <polygon id="Fill-637" fill="#7E8B9E" points="1166.71533 94 1245.54745 94 1245.54745 92 1166.71533 92"></polygon>
                <path d="M1164.9635,149 L1247.29927,149 L1247.29927,64 L1164.9635,64 L1164.9635,149 Z M1169.1324,146.634635 L1243.13037,146.634635 L1243.13037,66.3653655 L1169.1324,66.3653655 L1169.1324,146.634635 Z" id="Fill-638" fill="#EDF4F4"></path>
                <polyline id="Fill-639" fill="#9B624B" points="1261.31387 151 1246.51138 151 1246.51138 63.8513861 1164.9635 63.8513861 1164.9635 62 1252.70489 62 1252.70489 140.641686 1261.31387 140.641686 1261.31387 151"></polyline>
                <polyline id="Fill-640" fill="#AA745B" points="1261.31387 150.5 1245.54745 150.5 1261.31387 150.5"></polyline>
                <polygon id="Fill-641" fill="#254856" points="1154.45255 151 1254.30657 151 1254.30657 141 1154.45255 141"></polygon>
                <polygon id="Fill-642" fill="#4A5568" points="1317.37226 147 1396.20438 147 1396.20438 65 1317.37226 65"></polygon>
                <polygon id="Fill-643" fill="#7E8B9E" points="1317.37226 94 1396.20438 94 1396.20438 92 1317.37226 92"></polygon>
                <path d="M1313.86861,149 L1396.20438,149 L1396.20438,64 L1313.86861,64 L1313.86861,149 Z M1318.03751,146.634635 L1392.0459,146.634635 L1392.0459,66.3653655 L1318.03751,66.3653655 L1318.03751,146.634635 Z" id="Fill-644" fill="#EDF4F4"></path>
                <g id="Group-651" transform="translate(1161.459854, 0.000000)">
                    <mask id="mask-8" fill="white">
                        <use xlink:href="#path-7"></use>
                    </mask>
                    <g id="Clip-646"></g>
                    <polygon id="Fill-645" fill="#254856" mask="url(#mask-8)" points="144.034734 150.533486 244.811477 150.533486 244.811477 141.011673 144.034734 141.011673"></polygon>
                    <polygon id="Fill-647" fill="#4A5568" mask="url(#mask-8)" points="154.954946 36.7206148 234.240121 36.7206148 234.240121 0.195066148 154.954946 0.195066148"></polygon>
                    <path d="M152.840675,37.8933619 L236.354392,37.8933619 L236.354392,-46.5620545 L152.840675,-46.5620545 L152.840675,37.8933619 Z M157.069217,35.5431673 L232.136421,35.5431673 L232.136421,-44.2118599 L157.069217,-44.2118599 L157.069217,35.5431673 Z" id="Fill-648" fill="#EDF4F4" mask="url(#mask-8)"></path>
                    <polygon id="Fill-649" fill="#254856" mask="url(#mask-8)" points="144.034734 40.1436732 244.811477 40.1436732 244.811477 30.6218599 144.034734 30.6218599"></polygon>
                    <polygon id="Fill-650" fill="#4A5568" mask="url(#mask-8)" points="0.739994966 36.7206148 80.0251699 36.7206148 80.0251699 0.195066148 0.739994966 0.195066148"></polygon>
                </g>
                <polyline id="Fill-652" fill="#5E6A7D" points="1215.76642 35 1187.01451 35 1166.71533 19.7048802 1166.71533 0 1169.30806 0 1215.76642 35"></polyline>
                <g id="Group-656" transform="translate(1161.459854, 0.000000)">
                    <mask id="mask-10" fill="white">
                        <use xlink:href="#path-9"></use>
                    </mask>
                    <g id="Clip-654"></g>
                    <polyline id="Fill-653" fill="#5E6A7D" mask="url(#mask-10)" points="67.5538686 35.3657231 56.5489051 35.3657231 10.2166423 0.194092308 21.2321168 0.194092308 67.5538686 35.3657231"></polyline>
                    <path d="M0.735766423,37.7041846 L83.7722628,37.7041846 L83.7722628,-46.3296 L0.735766423,-46.3296 L0.735766423,37.7041846 Z M4.94014599,35.3657231 L79.5678832,35.3657231 L79.5678832,-43.9911385 L4.94014599,-43.9911385 L4.94014599,35.3657231 Z" id="Fill-655" fill="#EDF4F4" mask="url(#mask-10)"></path>
                </g>
                <polyline id="Fill-657" fill="#9B624B" points="1259.56204 40 1243.79562 40 1243.79562 0 1250.39245 0 1250.39245 29.681139 1259.56204 29.681139 1259.56204 40"></polyline>
                <polygon id="Fill-658" fill="#254856" points="1150.94891 40 1250.80292 40 1250.80292 30 1150.94891 30"></polygon>
                <path d="M1440,342 L1415.3349,342 L1414.49165,318.060408 L1436.48997,318.060408 L1436.48997,317.382229 L1414.47057,317.382229 L1436.48997,317.382229 L1436.48997,258.373038 L1437.73376,256.939107 L1440,256 L1440,342 M1404.4675,342 L1315.62044,342 L1315.62044,318.060408 L1404.08804,318.060408 C1404.28831,328.082056 1404.4148,337.238645 1404.4675,342" id="Fill-659" fill="#9B624B"></path>
                <path d="M1429.48905,315 L1424.51836,315 L1412.83722,300.601858 L1412.67153,295.808721 C1413.25145,294.814858 1413.87278,293.720906 1414.53554,292.548522 L1429.48905,310.970698 L1429.48905,315 M1403.16508,315 L1399.46812,315 L1355.91241,261.325526 L1355.91241,251.004097 C1355.96419,251.002927 1356.01596,251.001756 1356.05739,251 L1403.03046,308.866494 C1403.07188,310.913337 1403.1133,312.966033 1403.16508,315 M1393.35831,315 L1355.91241,315 L1355.91241,268.859104 L1393.35831,315" id="Fill-660" fill="#6B707B"></path>
                <polyline id="Fill-661" fill="#7C848D" points="1399.70803 315 1393.56456 315 1355.91241 268.579268 1355.91241 261 1399.70803 315"></polyline>
                <path d="M1338.39416,273 L1315.62044,273 L1315.62044,219.160984 L1338.39416,249.085426 L1338.39416,273 M1338.39416,241.500773 L1315.62044,211.573385 L1315.62044,201 L1338.39416,230.924442 L1338.39416,241.500773" id="Fill-662" fill="#6B707B"></path>
                <polygon id="Fill-663" fill="#606570" points="1315.62044 315 1338.39416 315 1338.39416 273 1315.62044 273"></polygon>
                <polyline id="Fill-664" fill="#7C848D" points="1338.39416 249 1315.62044 218.686299 1315.62044 211 1338.39416 241.316686 1338.39416 249"></polyline>
                <path d="M1402.86182,287 L1373.43066,249.844409 C1376.81367,250.571531 1380.24747,251.221 1382.99045,251.713396 L1401.55129,275.141908 C1402.06941,277.070899 1402.41482,279.076368 1402.55705,281.141842 C1402.65864,282.827283 1402.77039,284.805103 1402.86182,287 M1429.48905,267.433001 L1428.17852,265.781092 L1429.48905,264.225074 L1429.48905,267.433001 M1426.49209,263.646788 L1423.92182,260.409447 C1424.06405,256.402039 1424.3993,252.401102 1424.3993,252.401102 L1424.56185,249.896767 L1429.3773,255.974355 C1428.47313,258.513988 1427.48769,261.145982 1426.49209,263.646788 M1428.95061,263.330879 C1429.11316,262.959081 1429.29603,262.511395 1429.48905,262.002527 L1429.48905,262.909077 C1429.22491,263.1691 1429.03189,263.317348 1428.95061,263.330879 M1422.8551,259.055212 L1407.04741,239.099355 L1411.17204,233 L1423.45449,248.507234 C1423.23099,251.848113 1423.00749,255.589616 1422.8551,259.055212" id="Fill-665" fill="#6B707B"></path>
                <polygon id="Fill-666" fill="#9B99B3" points="1102.11679 59 1103.43066 59 1103.43066 54 1102.11679 54"></polygon>
                <path d="M1436.49985,257 L1436.49985,244.369605 C1437.04642,242.422018 1437.39328,241.116545 1437.42482,240.997919 L1436.49985,241.484226 L1436.49985,172.951601 L1315.9708,172.951601 L1315.9708,169.113675 L1103.64964,169.113675 L1103.64964,164.044638 L1440,164.044638 L1440,252.802656 C1438.82277,254.221443 1437.63504,255.655575 1436.49985,257 M1440,151.011151 L1413.77518,151.011151 L1413.77518,140.659433 L1405.00905,140.659433 L1405.00905,62.0678176 L1315.66599,62.0678176 L1315.66599,112.436541 L1315.64496,58.7669533 L1103.64964,58.7669533 L1103.64964,53.9469713 L1440,53.9469713 L1440,151.011151 M1440,40.9140752 L1325.40964,40.9140752 L1315.64496,40.913485 L1315.64496,40.1273682 L1413.77518,40.1273682 L1413.77518,29.7756498 L1405.00905,29.7756498 L1405.00905,0 L1440,0 L1440,40.9140752" id="Fill-667" fill="#9B624B"></path>
                <polyline id="Fill-668" fill="#AA745B" points="1440 54 1326.15228 54 1326.13139 41 1440 41 1440 54"></polyline>
                <polyline id="Fill-669" fill="#AA745B" points="1440 164 1326.94679 164 1326.94679 151 1315.62044 151 1440 151 1440 164"></polyline>
                <polyline id="Fill-670" fill="#9B624B" points="1438.24818 255 1440 254 1440 254.674184 1438.24818 255"></polyline>
                <path d="M1382.18978,251 C1379.33053,250.587182 1375.64978,249.850049 1372.07571,249.063424 L1355.91241,229.835077 L1355.91241,223 L1358.6543,223 L1382.18978,251" id="Fill-671" fill="#6B707B"></path>
                <polyline id="Fill-672" fill="#606570" points="1357.66423 223 1355.91241 223 1355.91241 220 1357.66423 223"></polyline>
                <path d="M1429.48905,249 L1424.79773,243.302298 L1425.0424,239.505803 L1423.96797,238.641349 C1423.96797,238.641349 1423.85095,239.916715 1423.69139,241.967722 L1407.95791,222.868016 L1429.48905,222.868016 L1429.48905,249 M1429.48905,218.229566 L1404.12826,218.229566 L1400.69221,214.060646 L1429.48905,214.060646 L1429.48905,218.229566 M1429.48905,208.953852 L1396.49023,208.953852 L1375.18248,183.10844 C1380.17167,181.757878 1385.77785,181 1391.69253,181 C1412.56412,181 1429.48905,190.417225 1429.48905,202.033479 L1429.48905,208.953852" id="Fill-673" fill="#6B707B"></path>
                <polyline id="Fill-674" fill="#606570" points="1429.48905 223 1407.17974 223 1403.21168 218 1429.48905 218 1429.48905 223"></polyline>
                <polyline id="Fill-675" fill="#606570" points="1429.48905 214 1400.44276 214 1396.20438 209 1429.48905 209 1429.48905 214"></polyline>
                <path d="M1407.73893,239 L1403.19359,233.414625 C1402.49351,228.752886 1401.93971,224.988292 1401.63668,222.927331 L1403.87278,222.927331 L1411.9708,232.882461 L1407.73893,239 M1401.95016,231.883475 L1394.65671,222.927331 L1401.50085,222.927331 C1401.61579,224.809334 1401.80387,228.072963 1401.95016,231.883475 M1400.11112,218.315629 L1390.89505,218.315629 L1387.52001,214.170749 L1396.73608,214.170749 L1400.11112,218.315629 M1392.6087,209.093404 L1383.39263,209.093404 L1366.42336,188.259509 C1368.37733,187.033882 1370.58208,185.938941 1372.98537,185 L1392.6087,209.093404" id="Fill-676" fill="#6B707B"></path>
                <path d="M1401.45985,223 L1399.34694,223 C1399.19884,221.805846 1399.11986,221.13952 1399.11986,221.134414 C1399.11986,221.137605 1399.15935,221.817335 1399.21859,223 L1392.75151,223 L1389.19708,218 L1397.90543,218 L1401.45985,223" id="Fill-677" fill="#606570"></path>
                <polyline id="Fill-678" fill="#606570" points="1396.20438 214 1387.73471 214 1383.94161 209 1392.41127 209 1396.20438 214"></polyline>
                <path d="M1340.14599,209 L1338.86787,209 L1317.37226,183 C1322.03052,184.106533 1326.20289,185.721789 1329.66754,187.719174 L1339.98754,200.192868 C1340.09317,200.836978 1340.14599,201.490465 1340.14599,202.149813 L1340.14599,209" id="Fill-679" fill="#6B707B"></path>
                <polyline id="Fill-680" fill="#606570" points="1340.14599 211 1338.39416 209 1340.14599 209 1340.14599 211"></polyline>
                <path d="M1429.3749,256 L1424.45621,249.914016 L1424.9128,242.889596 L1429.48905,248.558498 L1429.48905,255.675406 C1429.44754,255.783211 1429.40604,255.891606 1429.3749,256 M1423.32512,248.522563 L1410.77934,232.993907 L1412.85473,230.000105 L1412.12834,230.000105 L1410.39539,232.520861 L1402.35322,222.558603 L1408.48602,222.558603 L1423.83359,241.561767 C1423.69869,243.385029 1423.5119,245.823311 1423.32512,248.522563 M1404.7503,217.9436 L1398.6175,217.9436 L1395.26573,213.795752 L1401.39854,213.795752 L1404.7503,217.9436 M1397.29962,208.714771 L1391.16682,208.714771 L1371.67883,184.604117 C1373.21463,184.002647 1374.83344,183.465978 1376.51451,183 L1397.29962,208.714771" id="Fill-681" fill="#7C848D"></path>
                <polyline id="Fill-682" fill="#747C86" points="1410.21898 223 1403.68694 223 1399.70803 218 1406.24007 218 1410.21898 223"></polyline>
                <polyline id="Fill-683" fill="#747C86" points="1401.45985 214 1395.15968 214 1390.94891 209 1397.24908 209 1401.45985 214"></polyline>
                <path d="M1424.23358,315 L1412.82744,315 L1412.3205,300.551312 L1424.23358,315 M1402.319,308.844961 L1354.41322,250.775322 C1361.73216,250.573268 1367.02334,250.015267 1368.2062,249.882522 C1369.13558,250.089276 1370.07554,250.291331 1371.02605,250.488099 L1401.62196,287.585731 C1401.90711,293.55986 1402.1289,301.148667 1402.319,308.844961 M1354.26536,250.512769 L1354.26536,230.160436 L1370.26564,249.557707 C1363.60149,248.06579 1357.26475,246.397662 1357.26475,246.397662 C1358.47929,247.355073 1361.94338,248.408226 1366.09395,249.396768 C1365.23849,249.961229 1359.57766,250.308364 1354.26536,250.512769 M1338.4763,231.447949 L1313.86861,201.61372 L1313.86861,183 C1314.49173,183.126284 1315.10428,183.261379 1315.70627,183.405285 L1337.19839,209.462144 L1327.07016,209.462144 L1327.07016,214.5282 L1338.4763,214.5282 L1338.4763,218.663865 L1334.46303,218.663865 L1334.46303,223.265313 L1338.4763,223.265313 L1338.4763,231.447949" id="Fill-684" fill="#7C848D"></path>
                <polygon id="Fill-685" fill="#747C86" points="1336.64234 223 1338.39416 223 1338.39416 218 1336.64234 218"></polygon>
                <polyline id="Fill-686" fill="#747C86" points="1340.14599 214 1327.88321 214 1327.88321 209 1338.7721 209 1340.14599 210.533333 1340.14599 214"></polyline>
                <path d="M1429.48905,311 L1414.53554,292.4046 C1418.65708,285.053054 1424.1352,274.641071 1427.99784,266.369621 L1428.15318,266.181741 L1429.48905,267.840758 L1429.48905,311 M1412.44371,289.136196 C1411.79131,286.024949 1410.98357,283.137031 1409.97907,280.712315 C1408.66391,277.527807 1405.71256,259.521452 1403.36184,244.11765 L1406.6135,239.385199 L1422.72683,259.426921 C1422.46794,265.001287 1422.39546,269.866672 1422.80968,271.239142 C1419.64086,277.965012 1416.00604,284.731058 1412.44371,289.136196 M1401.01111,275.582835 L1382.0914,252.053515 C1383.77937,252.350696 1385.19809,252.590568 1386.21294,252.756588 C1389.54745,255.812888 1398.00798,264.427603 1401.01111,275.582835 M1424.39409,268.780158 C1423.74168,268.172797 1423.68991,264.477232 1423.81417,260.786984 L1426.43414,264.038254 C1425.76103,265.697271 1425.07756,267.298978 1424.39409,268.780158 M1398.02869,258.665948 C1397.61447,258.665948 1397.14847,258.358722 1396.60997,257.688144 C1390.14807,249.602211 1389.77527,228.198063 1389.77527,228.198063 L1387.86984,231.537366 C1387.86984,231.537366 1389.25749,240.488847 1389.00895,248.479067 C1388.96753,249.838539 1388.67757,250.40277 1388.22193,250.40277 C1386.00583,250.403951 1379.89601,236.992977 1379.89601,236.992977 L1375.71234,237.553073 L1384.83564,251.551319 C1383.95541,251.538322 1382.78523,251.411886 1381.41829,251.205691 L1358.5738,222.793853 L1393.27547,222.793853 L1400.50369,231.782555 C1400.90755,242.896429 1400.96969,258.664766 1398.02869,258.665948 M1389.54745,218.165386 L1355.91241,218.165386 L1355.91241,214.005437 L1386.20258,214.005437 L1389.54745,218.165386 M1382.11211,208.909634 L1355.91241,208.909634 L1355.91241,202.004155 C1355.91241,196.623577 1359.46438,191.714472 1365.2946,188 L1382.11211,208.909634" id="Fill-687" fill="#7C848D"></path>
                <polyline id="Fill-688" fill="#747C86" points="1394.45255 223 1358.65765 223 1355.91241 219.427751 1355.91241 218 1390.60709 218 1394.45255 223"></polyline>
                <polyline id="Fill-689" fill="#747C86" points="1385.69343 214 1355.91241 214 1355.91241 209 1381.67172 209 1385.69343 214"></polyline>
                <path d="M1403.60368,243 C1403.03499,239.427296 1402.50923,236.012734 1402.04785,232.976647 L1406.71533,238.596311 L1403.60368,243 M1338.36626,199.605745 L1327.88321,187 C1333.69878,190.336972 1337.54007,194.729407 1338.36626,199.605745" id="Fill-690" fill="#7C848D"></path>
                <path d="M1432.9927,315 L1431.53973,315 L1431.53973,264.517181 L1432.9927,262.857616 L1432.9927,315 M1356.18689,315 L1340.3315,315 L1340.3315,201.859293 C1340.3315,201.194166 1340.27848,200.534952 1340.17242,199.885197 C1339.35579,195.017652 1335.55898,190.633137 1329.81074,187.302183 C1326.3321,185.287292 1322.14289,183.65788 1317.46581,182.54165 C1316.86129,182.3968 1316.24617,182.260818 1315.62044,182.133705 L1315.62044,178.912718 L1432.81241,178.912718 L1432.81241,175 L1315.62044,175 L1432.9927,175 L1432.9927,251.882731 C1432.53666,253.168051 1432.0488,254.518997 1431.53973,255.899505 L1431.53973,201.859293 C1431.53973,190.260075 1414.66621,180.856662 1393.85801,180.856662 C1387.96129,180.856662 1382.37213,181.613428 1377.3981,182.96201 C1375.68,183.429668 1374.02552,183.968272 1372.45589,184.571912 C1370.0166,185.514914 1367.77882,186.61459 1365.79557,187.845517 C1359.82461,191.562541 1356.18689,196.475019 1356.18689,201.859293 L1356.18689,250.089549 C1351.12801,250.284653 1346.38731,250.350279 1346.38731,250.350279 L1345.44341,250.341411 C1347.37363,250.402307 1349.24022,250.42832 1351.04317,250.42832 C1352.83552,250.42832 1354.56423,250.402307 1356.18689,250.357965 L1356.18689,315 M1431.53973,263.194614 L1431.53973,262.283538 C1431.97456,261.17322 1432.47303,259.770246 1432.9927,258.215919 L1432.9927,261.692315 C1432.38818,262.345617 1431.90032,262.861164 1431.53973,263.194614" id="Fill-691" fill="#522D36"></path>
                <path d="M1438.24818,317 L1415.90847,317 L1415.82292,314.64703 L1433.97059,314.64703 L1433.97059,262.767571 L1438.24818,257.933982 L1438.24818,317 M1405.36422,317 L1315.62044,317 L1315.62044,314.64703 L1405.32145,314.64703 C1405.33214,315.434098 1405.35353,316.21999 1405.36422,317 M1433.97059,261.608145 L1433.97059,258.149279 C1435.48913,253.619812 1437.21086,247.795622 1438.24818,244.183814 L1438.24818,256.772791 C1436.612,258.668109 1435.10415,260.381659 1433.97059,261.608145 M1433.97059,251.848025 L1433.97059,175.35297 L1315.62044,175.35297 L1315.62044,173 L1438.24818,173 L1438.24818,241.307896 L1437.41405,241.736725 C1437.41405,241.736725 1436.00244,246.148543 1433.97059,251.848025" id="Fill-692" fill="#442831"></path>
                <polygon id="Fill-693" fill="#453037" points="1315.62044 179 1432.9927 179 1432.9927 175 1315.62044 175"></polygon>
                <path d="M1438.24818,318 L1415.92986,318 L1415.90847,317 L1438.24818,317 L1438.24818,318 M1405.37492,318 L1315.62044,318 L1315.62044,317 L1405.36422,317 C1405.36422,317.335355 1405.37492,317.665511 1405.37492,318" id="Fill-694" fill="#A27F4C"></path>
                <path d="M1394.45255,141 L1376.24749,141 L1320.87591,98.0521729 L1320.87591,93.4985279 L1394.45255,93.4985279 L1394.45255,141 L1394.45255,141 Z M1365.39905,141 L1362.74652,141 L1320.87591,108.527382 L1320.87591,106.472265 L1365.39905,141 L1365.39905,141 Z M1334.48049,141 L1320.87591,141 L1320.87591,130.450595 L1334.48049,141 L1334.48049,141 Z M1320.87591,91.3391827 L1394.45255,91.3391827 L1394.45255,66 L1320.87591,66 L1320.87591,91.3391827 Z" id="Fill-695" fill="#404B58"></path>
                <polyline id="Fill-696" fill="#4D5866" points="1361.16788 141 1333.96756 141 1320.87591 130.604135 1320.87591 109 1361.16788 141"></polyline>
                <polyline id="Fill-697" fill="#4D5866" points="1376.93431 141 1365.95131 141 1320.87591 106.430321 1320.87591 98 1376.93431 141"></polyline>
                <polygon id="Fill-698" fill="#616E7B" points="1320.87591 94 1394.45255 94 1394.45255 92 1320.87591 92"></polygon>
                <polyline id="Fill-699" fill="#AAB2B3" points="1396.20438 141 1392.0459 141 1392.0459 66.3446123 1318.03751 66.3446123 1318.03751 141 1313.88946 141 1313.86861 112.187645 1313.86861 64 1396.20438 64 1396.20438 141"></polyline>
                <polyline id="Fill-700" fill="#745345" points="1411.9708 151 1405.42633 151 1405.42633 141.429485 1397.16831 141.429485 1397.16831 63.8513861 1315.62044 63.8513861 1315.62044 62 1403.36182 62 1403.36182 140.641686 1411.9708 140.641686 1411.9708 151"></polyline>
                <polygon id="Fill-701" fill="#27424C" points="1315.62044 151 1406.71533 151 1406.71533 141 1315.62044 141"></polygon>
                <path d="M1394.45255,31 L1376.24749,31 L1336.93616,0 L1394.45255,0 L1394.45255,31 M1365.39905,31 L1362.74652,31 L1323.43519,0 L1326.07736,0 L1365.39905,31 M1334.48049,31 L1320.87591,31 L1320.87591,20.2757695 L1334.48049,31" id="Fill-702" fill="#404B58"></path>
                <polyline id="Fill-703" fill="#4D5866" points="1361.16788 31 1333.96756 31 1320.87591 20.2757695 1320.87591 0 1323.3387 0 1361.16788 31"></polyline>
                <polyline id="Fill-704" fill="#9B624B" points="1313.00146 31 1312.98394 31 1313.00146 0 1313.00146 31"></polyline>
                <polyline id="Fill-705" fill="#4D5866" points="1376.93431 31 1365.94904 31 1326.13139 0 1337.12714 0 1376.93431 31"></polyline>
                <path d="M1392.0459,31 L1396.20438,31 L1396.20438,0 L1392.0459,0 L1392.0459,31 Z M1313.86861,31 L1318.03751,31 L1318.03751,0 L1313.86861,0 L1313.86861,31 Z" id="Fill-706" fill="#AAB2B3"></path>
                <polyline id="Fill-707" fill="#745345" points="1411.9708 40 1405.00015 40 1405.00015 30.4659372 1396.20438 30.4659372 1396.20438 0 1402.80121 0 1402.80121 29.681139 1411.9708 29.681139 1411.9708 40"></polyline>
                <g id="Group-711" transform="translate(0.000000, 31.000000)">
                    <polyline id="Fill-708" fill="#27424C" points="1406.87789 9.61851852 1315.14378 9.61851852 1315.15432 0.0695286195 1406.87789 0.0695286195 1406.87789 9.61851852"></polyline>
                    <polygon id="Fill-710" fill="#ECCEA1" points="0.063250366 349.916919 1439.86296 349.916919 1439.86296 311.151768 0.063250366 311.151768"></polygon>
                </g>
                <polyline id="Fill-715" fill="#EDE3B9" points="877.016081 342 977.518248 381 871.972665 381 774.306569 342 877.016081 342"></polyline>
                <path d="M1145.42945,342 C1169.06445,348.112312 1236.16346,370.673507 1266.56934,381 L1114.98151,381 L1007.29927,342 L1145.42945,342" id="Fill-716" fill="#EDE3B9"></path>
                <path d="M1369.51304,346 L1162.70812,346 C1156.77864,344.325387 1151.67066,342.950788 1147.75278,342 L1404.93191,342 C1404.95297,343.572006 1404.9635,344.638784 1404.9635,345.061481 L1369.51304,345.061481 L1369.51304,346 M1018.85569,346 L967.047032,346 L966.898532,342 L1009.38433,342 L1020.59662,345.813746 C1020.00051,345.875645 1019.42336,345.937544 1018.85569,346 M956.161233,346 L889.914359,346 L878.883218,342 L956.109626,342 C956.131743,343.614945 956.148594,344.970026 956.161233,346 M786.201208,346 L687.989935,346 L679.440117,342 L775.480759,342 L786.201208,346 M596.408511,346 L456.855212,346 L455.372317,342 L595.236307,342 L596.408511,346 M398.860103,346 L330.254077,346 C330.263556,345.863377 330.267769,345.72508 330.267769,345.586226 C330.267769,344.434686 329.949705,343.234072 329.343066,342 L402.954916,342 L398.860103,346" id="Fill-717" fill="#A9997D"></path>
                <polyline id="Fill-720" fill="#A9997D" points="1440 345 1417.33333 345 1417.22628 342 1440 342 1440 345"></polyline>
                <polyline id="Fill-722" fill="#AAA78D" points="889.927007 346 786.725913 346 776.058394 342 878.95033 342 889.927007 346"></polyline>
                <g id="Group-728" transform="translate(0.000000, 202.000000)">
                    <mask id="mask-12" fill="white">
                        <use xlink:href="#path-11"></use>
                    </mask>
                    <g id="Clip-724"></g>
                    <path d="M1161.8776,144.219086 L1157.56603,144.219086 C1154.6776,142.270514 1146.19151,140.776019 1131.78097,139.9836 L1146.90835,139.9836 C1150.82987,140.990362 1155.94261,142.445886 1161.8776,144.219086 M1019.63385,144.021867 L1008.41113,139.9836 L1077.14319,139.9836 C1056.15461,140.836838 1033.95373,142.434667 1019.63385,144.021867" id="Fill-723" fill="#AAA78D" mask="url(#mask-12)"></path>
                    <polygon id="Fill-726" fill="#C1A580" mask="url(#mask-12)" points="0.063250366 186 1439.86296 186 1439.86296 178.833981 0.063250366 178.833981"></polygon>
                </g>
                <path d="M1099.51123,245.73839 C1097.14664,240.381649 1090.02121,237.896611 1081.89294,237.089682 C1089.76786,233.443467 1095.51043,228.770464 1094.03256,224.44051 C1092.77637,220.718259 1089.76786,218.394136 1083.81416,217.085011 C1083.82472,216.987755 1083.83528,216.891678 1083.83528,216.793833 C1083.83528,209.740122 1063.50404,204.02265 1038.42674,204.02265 C1017.80944,204.02265 1000.41283,207.887543 994.869768,213.180626 C994.761039,205.578156 978.417937,198.398307 951.82899,203.994947 C913.433995,212.077213 923.121416,226.217053 931.116678,226.755203 C931.116678,226.755203 908.564421,228.798757 900.211304,234.384787 C890.37504,231.421721 877.290635,229.613939 862.925764,229.613939 C832.364521,229.613939 807.591241,237.792872 807.591241,247.881558 C807.591241,257.970245 832.364521,266.149178 862.925764,266.149178 C870.631787,266.149178 877.968343,265.627532 884.633525,264.68798 C899.054345,274.859777 933.886624,258.375773 960.264446,263.549201 C971.91532,265.833243 983.272731,265.155988 992.868313,262.998673 C1005.958,264.748102 1025.30961,267.464786 1034.81652,269.440556 C1049.95728,272.586934 1106.75278,262.160504 1099.51123,245.73839" id="Fill-751" fill="#DB6E1D"></path>
                <path d="M1056.86986,206.161126 C1041.56477,199.683806 1024.78229,199.089372 1017.28002,201.737734 C1020.24325,197.721465 1021.93547,191.38064 1009.70896,189.763378 C988.716569,186.986202 956.751755,186.261773 952.935535,196.994081 C952.504808,198.201267 952.356646,199.266639 952.410619,200.21856 C949.861181,199.909525 946.884191,199.658398 943.392867,199.491176 C914.766982,198.115588 887.572972,189.54475 878.507597,209.132113 C877.995381,210.240029 844.451587,221.683768 863.58772,232.250627 C846.766083,232.964421 833.868613,237.057505 833.868613,242.000879 C833.868613,246.725624 845.64958,250.671577 861.37482,251.635316 C859.024342,251.164378 861.37482,251.635316 861.37482,251.635316 C861.37482,251.635316 931.707148,257.53652 944.782412,256.960404 C957.85556,256.383697 970.302195,256.713412 988.700695,256.872362 C1007.09919,257.031901 1065.64315,245.763657 1072.10934,233.912797 C1079.36926,220.626077 1075.87688,214.206664 1056.86986,206.161126" id="Fill-752" fill="#F9F92B"></path>
                <path d="M982.076273,232 C982.152422,231.13835 981.822051,230.350136 981.021898,229.768631 C982.219199,230.018314 983.984692,230.012874 986.277372,229 C986.277372,229 983.785532,230.23155 982.076273,232" id="Fill-753" fill="#DB6E1D"></path>
                <path d="M981.021898,229.768631 C981.822051,230.350136 982.152422,231.13835 982.076273,232 C983.785532,230.23155 986.277372,229 986.277372,229 C983.984692,230.012874 982.219199,230.018314 981.021898,229.768631" id="Fill-754" fill="#DB6E1D"></path>
                <path d="M1007.29927,251.850525 L989.817043,258.301501 L1001.09511,245.535403 L999.125955,245.891209 C999.125955,245.891209 982.382294,266.288031 981.252032,266.458583 C983.525362,261.6402 988.38794,244.21098 988.4904,243.761664 L986.718697,244.674998 C986.718697,244.674998 981.50498,261.085613 976.575163,271.493979 C975.16207,270.230719 976.476972,255.531504 976.476972,255.531504 L977.362824,242.244341 L976.279524,241.386877 C976.279524,241.386877 973.790601,270.263653 974.935804,273.941692 C971.678432,280.636733 967.922635,287.371766 964.253288,291.756712 C963.583029,288.660314 962.750542,285.785046 961.71527,283.371443 C960.354474,280.20212 957.323368,262.277711 954.892079,246.944514 L964.707954,233.147459 L963.970456,233.147459 L954.766138,246.148213 C952.874898,234.182532 951.378556,224 951.378556,224 C951.378556,224 954.595372,268.501677 947.93761,260.452807 C941.278781,252.403937 940.888153,231.098485 940.888153,231.098485 L938.929674,234.421893 C938.929674,234.421893 940.357709,243.332344 940.104761,251.28594 C939.850746,259.238948 930.705129,239.852498 930.705129,239.852498 L926.397543,240.410026 L935.797175,254.344111 C929.632502,254.258247 909.020977,248.879983 909.020977,248.879983 C910.250497,249.838602 913.752278,250.893083 917.944598,251.883459 C916.25721,252.985577 896.1249,253.260224 896.1249,253.260224 L895.182482,253.250815 C907.899254,253.647201 918.349101,252.562138 920.07491,252.369826 C926.560838,253.798933 933.987049,255.029847 937.215604,255.543854 C941.24783,259.114269 952.56325,270.307174 953.523811,284.263606 C954.696764,301.275269 955.168507,348 955.168507,348 L966.257661,348 L964.488092,298.285907 C968.792477,291.084503 975.666898,278.653627 980.281865,269.094491 L988.818059,259.433612 L1007.29927,251.850525" id="Fill-755" fill="#5E2419"></path>
                <path d="M1055.5841,245.686963 C1055.23574,243.323961 1053.35989,241.164737 1050.42102,239.439727 C1057.58979,237.077317 1062.02343,233.813306 1062.02343,230.203937 C1062.02343,222.992899 1044.33322,217.14789 1022.50811,217.14789 C1014.00502,217.14789 1006.13637,218.037644 999.689651,219.547619 C999.512305,219.479496 999.338127,219.410187 999.156559,219.342656 C1000.87934,217.231415 1001.8368,214.90514 1001.8368,212.461574 C1001.8368,202.818226 986.977778,195 968.647853,195 C950.317928,195 935.458907,202.818226 935.458907,212.461574 C935.458907,213.931861 935.809376,215.360088 936.459643,216.723746 C934.245991,216.277091 931.903552,215.942397 929.46294,215.732695 C929.652953,215.143277 929.756405,214.537865 929.756405,213.918828 C929.756405,208.239092 921.472891,203.635118 911.253356,203.635118 C901.034877,203.635118 892.751364,208.239092 892.751364,213.918828 C892.751364,216.047841 893.914666,218.025796 895.908747,219.666095 C891.46772,218.802998 886.479877,218.317839 881.207015,218.317839 C862.649074,218.317839 847.604264,224.316275 847.604264,231.715689 C847.604264,232.830548 847.951565,233.912825 848.596554,234.948897 C847.738328,234.938827 846.876936,234.932903 846.007098,234.932903 C821.888109,234.932903 802.335766,238.661341 802.335766,243.260576 C802.335766,247.859811 821.888109,251.588249 846.007098,251.588249 C848.989248,251.588249 851.90067,251.530196 854.714974,251.422382 C853.524226,252.077554 852.864458,252.789002 852.864458,253.533623 C852.864458,256.375269 862.366166,258.74301 874.969309,259.276152 C874.832078,259.754794 874.758184,260.245285 874.758184,260.745845 C874.758184,265.856897 882.211973,270 891.407549,270 C900.603125,270 908.05797,265.856897 908.05797,260.745845 C908.05797,258.956267 907.141685,257.286941 905.560354,255.870561 C907.02451,255.154967 907.842622,254.364732 907.842622,253.533623 C907.842622,251.980996 905.000871,250.570541 900.371942,249.523213 C909.266664,248.607394 915.785167,246.897194 917.602959,244.858816 C919.522091,245.023498 921.498226,245.112947 923.52081,245.112947 C936.324522,245.112947 947.382226,241.677145 952.578027,236.701749 C957.862501,237.955224 964.230049,238.737757 971.128579,238.858603 C970.950178,239.158939 970.849893,239.465792 970.849893,239.777384 C970.849893,241.012495 972.301381,242.16882 974.823277,243.163426 C969.736205,244.372473 966.521818,246.141318 966.521818,248.113942 C966.521818,251.758262 977.479237,254.711867 990.99761,254.711867 C997.734628,254.711867 1003.8351,253.978501 1008.26135,252.790779 C1008.23179,252.926434 1008.21701,253.062682 1008.21701,253.200706 C1008.21701,257.667249 1023.6978,261.287873 1042.79517,261.287873 C1061.89676,261.287873 1077.37226,257.667249 1077.37226,253.200706 C1077.37226,249.790969 1068.34664,246.876461 1055.5841,245.686963" id="Fill-756" fill="#F2D24C"></path>
                <path d="M903.941606,228.889109 C903.941606,228.889109 900.007404,229.370674 896.619935,228.326726 C893.234744,227.283446 891.678832,225.110725 891.678832,225.110725 C891.678832,225.110725 895.613034,224.629828 898.998225,225.67244 C902.385694,226.716388 903.941606,228.889109 903.941606,228.889109" id="Fill-757" fill="#DB6E1D"></path>
                <path d="M905.236239,229 C905.236239,229 902.436334,227.509718 902.205438,225.576099 C901.973376,223.643634 904.397783,222 904.397783,222 C904.397783,222 907.198855,223.490858 907.429751,225.423901 C907.660647,227.356366 905.236239,229 905.236239,229" id="Fill-758" fill="#DB6E1D"></path>
                <path d="M903.941606,229.17935 C903.941606,229.17935 902.188837,230.881524 898.803308,231.610719 C895.416677,232.339914 891.678832,231.820991 891.678832,231.820991 C891.678832,231.820991 893.431601,230.118276 896.81713,229.389081 C900.204862,228.659886 903.941606,229.17935 903.941606,229.17935" id="Fill-759" fill="#DB6E1D"></path>
                <path d="M867.153285,240.889023 C867.153285,240.889023 863.219083,241.37064 859.832753,240.327248 C856.446423,239.283856 854.890511,237.110903 854.890511,237.110903 C854.890511,237.110903 858.824713,236.629286 862.209904,237.673346 C865.597373,238.71607 867.153285,240.889023 867.153285,240.889023" id="Fill-760" fill="#DB6E1D"></path>
                <path d="M866.69609,241 C866.69609,241 863.896181,239.509473 863.665285,237.576689 C863.433222,235.642751 865.8588,234 865.8588,234 C865.8588,234 868.658709,235.490527 868.889605,237.423311 C869.120501,239.356672 866.69609,241 866.69609,241" id="Fill-761" fill="#DB6E1D"></path>
                <path d="M867.153285,241.179226 C867.153285,241.179226 865.40146,242.881811 862.014525,243.610949 C858.62759,244.340087 854.890511,243.820664 854.890511,243.820664 C854.890511,243.820664 856.642336,242.11862 860.02927,241.389482 C863.415104,240.659803 867.153285,241.179226 867.153285,241.179226" id="Fill-762" fill="#DB6E1D"></path>
                <path d="M919.734135,224 C919.734135,224 919.377806,221.914283 921.29808,220.257943 C923.218354,218.60101 926.689223,218 926.689223,218 C926.689223,218 927.045552,220.085717 925.125278,221.742057 C923.205004,223.39899 919.734135,224 919.734135,224" id="Fill-763" fill="#DB6E1D"></path>
                <path d="M919.708029,224.30705 C919.708029,224.30705 922.560494,222.898512 925.947923,223.005836 C929.333333,223.112493 931.970803,224.693682 931.970803,224.693682 C931.970803,224.693682 929.117328,226.100886 925.731919,225.99423 C922.34449,225.888239 919.708029,224.30705 919.708029,224.30705" id="Fill-764" fill="#DB6E1D"></path>
                <path d="M918.992052,224 C918.992052,224 915.906989,222.842087 914.851902,220.909013 C913.795773,218.975938 915.168532,217 915.168532,217 C915.168532,217 918.252553,218.157913 919.308682,220.090384 C920.364811,222.023458 918.992052,224 918.992052,224" id="Fill-765" fill="#DB6E1D"></path>
                <path d="M1030.0991,228 C1030.0991,228 1029.74278,225.914283 1031.66301,224.257943 C1033.58323,222.60101 1037.05402,222 1037.05402,222 C1037.05402,222 1037.41137,224.085123 1035.49011,225.742057 C1033.56989,227.39899 1030.0991,228 1030.0991,228" id="Fill-766" fill="#DB6E1D"></path>
                <path d="M1031.82482,228.307012 C1031.82482,228.307012 1034.67829,226.899109 1038.06471,227.005768 C1041.45113,227.112427 1044.08759,228.693652 1044.08759,228.693652 C1044.08759,228.693652 1041.23513,230.100889 1037.8477,229.994229 C1034.46229,229.88757 1031.82482,228.307012 1031.82482,228.307012" id="Fill-767" fill="#DB6E1D"></path>
                <path d="M1031.10881,228 C1031.10881,228 1028.02468,226.841583 1026.96851,224.909279 C1025.91234,222.976371 1027.28619,221 1027.28619,221 C1027.28619,221 1030.37033,222.157813 1031.42546,224.090721 C1032.48162,226.023629 1031.10881,228 1031.10881,228" id="Fill-768" fill="#DB6E1D"></path>
                <path d="M1003.8221,251 C1003.8221,251 1003.46369,248.91467 1005.3841,247.257573 C1007.3045,245.601069 1010.77663,245 1010.77663,245 C1010.77663,245 1011.13401,247.08533 1009.2136,248.742427 C1007.29217,250.398931 1003.8221,251 1003.8221,251" id="Fill-769" fill="#DB6E1D"></path>
                <path d="M1007.29927,250.306724 C1007.29927,250.306724 1010.15197,248.899131 1013.53766,249.005767 C1016.92537,249.112403 1019.56204,250.692612 1019.56204,250.692612 C1019.56204,250.692612 1016.70934,252.100872 1013.32164,251.994236 C1009.93595,251.886934 1007.29927,250.306724 1007.29927,250.306724" id="Fill-770" fill="#DB6E1D"></path>
                <g id="Group-775" transform="translate(1002.043796, 185.000000)">
                    <mask id="mask-14" fill="white">
                        <use xlink:href="#path-13"></use>
                    </mask>
                    <g id="Clip-772"></g>
                    <path d="M5.4004096,65.7421727 C5.4004096,65.7421727 2.28955522,64.6101007 1.22459696,62.7211511 C0.159638712,60.8327914 1.54387439,58.9019568 1.54387439,58.9019568 C1.54387439,58.9019568 4.65472877,60.0334388 5.71863677,61.9223885 C6.78359502,63.8113381 5.4004096,65.7421727 5.4004096,65.7421727" id="Fill-771" fill="#DB6E1D" mask="url(#mask-14)"></path>
                    <path d="M546.521031,57.4560432 C544.178963,52.0941871 537.089744,49.6076403 528.992281,48.7994388 C536.827181,45.1501439 542.540566,40.4731942 541.080712,36.1401727 C539.820406,32.414777 536.837683,30.0886906 530.914247,28.7784604 C530.914247,28.6811223 530.935252,28.584964 530.935252,28.487036 C530.935252,21.4273669 510.707347,15.7050647 485.753295,15.7050647 C465.241821,15.7050647 447.933624,19.573223 442.419787,24.870777 C442.314761,17.2618849 426.046316,10.0753813 399.600903,15.6773381 C361.392638,23.7664317 371.033976,37.9176259 378.994906,38.4562302 C378.994906,38.4562302 356.550964,40.5021007 348.243449,46.0928489 C338.455075,43.1266906 325.431917,41.3179712 311.148453,41.3179712 C280.74358,41.3179712 256.094103,49.5038129 256.094103,59.6004317 C256.094103,69.6976403 280.74358,77.883482 311.148453,77.883482 C318.815313,77.883482 326.114583,77.3619856 332.74169,76.4216403 C347.088169,86.6020288 381.746574,70.1041007 407.992438,75.2813094 C419.576747,77.5678705 430.877488,76.8900432 440.424303,74.7309065 C453.447461,76.481223 472.698629,79.2007914 482.161424,81.1776403 C497.222076,84.3266763 553.725779,73.8920288 546.521031,57.4560432" id="Fill-773" fill="#DB6E1D" mask="url(#mask-14)"></path>
                    <path d="M503.555112,18.4364317 C488.368429,11.9696403 471.721893,11.3755827 464.275587,14.0202302 C467.2163,10.0104892 468.896707,3.67997122 456.755763,2.06533813 C435.929213,-0.707323741 404.201019,-1.43116547 400.420102,9.28428777 C399.989497,10.4895108 399.842462,11.5531511 399.894975,12.5029353 C397.363861,12.1949928 394.412645,11.9442734 390.946805,11.7767338 C362.537415,10.4033813 335.556372,1.84706475 326.55569,21.4025899 C326.051568,22.508705 292.758494,33.9326619 311.747099,44.4835252 C295.058552,45.1961583 282.255947,49.2825899 282.255947,54.2179281 C282.255947,58.9344029 293.945282,62.8739424 309.552066,63.8361151 C307.220501,63.3665324 309.552066,63.8361151 309.552066,63.8361151 C309.552066,63.8361151 379.351993,69.7283165 392.322638,69.1531367 C405.303786,68.5773669 417.654781,68.9065468 435.908208,69.0652374 C454.172137,69.224518 512.272226,57.974 518.689282,46.1429928 C525.883527,32.8772806 522.428189,26.4688921 503.555112,18.4364317" id="Fill-774" fill="#F9F92B" mask="url(#mask-14)"></path>
                </g>
                <path d="M1434.04614,229 C1434.12807,228.137806 1433.78863,227.349592 1432.9927,226.768631 C1434.18659,227.018314 1435.95403,227.01233 1438.24818,226 C1438.24818,226 1435.75504,227.23155 1434.04614,229" id="Fill-776" fill="#DB6E1D"></path>
                <g id="Group-781" transform="translate(1250.802920, 191.000000)">
                    <mask id="mask-16" fill="white">
                        <use xlink:href="#path-15"></use>
                    </mask>
                    <g id="Clip-778"></g>
                    <path d="M180.619437,35.5970115 C181.342213,36.2271724 181.650455,37.0821379 181.576052,38.0173487 C183.127893,36.0991341 185.391881,34.7632874 185.391881,34.7632874 C183.308587,35.8613487 181.7036,35.8678391 180.619437,35.5970115" id="Fill-777" fill="#DB6E1D" mask="url(#mask-16)"></path>
                    <path d="M205.183171,57.4897931 L187.772788,63.9619234 L199.007693,51.1533716 L197.041319,51.5109349 C197.041319,51.5109349 180.374969,71.9746437 179.24829,72.1451648 C181.512278,67.3115709 186.348495,49.8240153 186.454786,49.3744061 L184.690363,50.2907356 C184.690363,50.2907356 179.492758,66.7551648 174.582137,77.1976628 C173.179103,75.9302605 174.486476,61.1828429 174.486476,61.1828429 L175.368687,47.8521073 L174.295153,46.9906513 C174.295153,46.9906513 171.818584,75.9633027 172.955893,79.6534023 C169.703404,86.3703985 165.972607,93.1275172 162.316214,97.5268429 C161.646584,94.4197011 160.817518,91.5355939 159.7865,89.1140766 C158.436611,85.9337701 155.407332,67.9511724 152.994538,52.5676935 L162.773263,38.7253946 L162.02923,38.7253946 L152.866989,51.7687816 C150.985648,39.7638621 149.497581,29.5473487 149.497581,29.5473487 C149.497581,29.5473487 152.696924,74.1949579 146.064398,66.1202835 C139.431871,58.0450192 139.049225,36.6691111 139.049225,36.6691111 L137.09348,40.0040077 C137.09348,40.0040077 138.517772,48.9436782 138.262675,56.9233563 C138.018207,64.9018544 128.909112,45.4524215 128.909112,45.4524215 L124.614976,46.0117778 L133.979168,59.9915556 C127.835578,59.9048199 107.310883,54.5095096 107.310883,54.5095096 C108.533224,55.471272 112.019552,56.5292107 116.196769,57.5222452 C114.517379,58.627387 94.4709916,58.9035249 94.4709916,58.9035249 L93.5250062,58.8946743 C106.194833,59.2917701 116.600673,58.2031494 118.322579,58.0102069 C124.774412,59.444 132.17223,60.6795402 135.392832,61.1952337 C139.399984,64.7773563 150.666776,76.0063755 151.63402,90.0091648 C152.792586,107.076613 153.270893,153.954567 153.270893,153.954567 L164.314476,153.954567 L162.550053,104.077448 C166.83356,96.8524291 173.678668,84.3807893 178.281047,74.7903065 L186.773657,65.0977471 L205.183171,57.4897931" id="Fill-779" fill="#5E2419" mask="url(#mask-16)"></path>
                    <path d="M255.235365,50.7255939 C254.884606,48.371341 252.992635,46.2212414 250.037759,44.5030498 C257.244255,42.149977 261.719085,38.8982759 261.719085,35.3037625 C261.719085,28.1212261 243.904798,22.298728 221.923924,22.298728 C213.367539,22.298728 205.438268,23.1855556 198.954548,24.6895632 C198.773854,24.6211188 198.59316,24.5520843 198.412466,24.48541 C200.145001,22.3819234 201.112245,20.065433 201.112245,17.6315249 C201.112245,8.02629119 186.157172,0.238965517 167.694513,0.238965517 C149.242483,0.238965517 134.276782,8.02629119 134.276782,17.6315249 C134.276782,19.096 134.62754,20.5174023 135.286541,21.8768506 C133.054441,21.4313716 130.694792,21.098 128.239482,20.8891264 C128.430805,20.3026284 128.537095,19.6996092 128.537095,19.0824291 C128.537095,13.4251418 120.193291,8.83936398 109.904371,8.83936398 C99.6154515,8.83936398 91.2822767,13.4251418 91.2822767,19.0824291 C91.2822767,21.2036169 92.4514722,23.1725747 94.4603625,24.8075709 C89.9855327,23.9478851 84.9579923,23.4646437 79.6540966,23.4646437 C60.9682277,23.4646437 45.8218322,29.4393716 45.8218322,36.8089502 C45.8218322,37.9199923 46.1725908,38.9979923 46.8209628,40.0299693 C45.9493808,40.0199387 45.0884278,40.0134483 44.2062167,40.0134483 C19.9294677,40.0134483 0.233839088,43.7271494 0.233839088,48.3082069 C0.233839088,52.8898544 19.9294677,56.6035556 44.2062167,56.6035556 C47.2142377,56.6035556 50.1478553,56.5457318 52.9751825,56.4377548 C51.7740999,57.0909272 51.1150988,57.7995632 51.1150988,58.5412414 C51.1150988,61.3716552 60.6812433,63.7300383 73.3723284,64.2610728 C73.2341507,64.7378238 73.1597474,65.2263755 73.1597474,65.7249579 C73.1597474,70.8158084 80.6638563,74.9425364 89.9217584,74.9425364 C99.1796605,74.9425364 106.694398,70.8158084 106.694398,65.7249579 C106.694398,63.9424521 105.769671,62.2797241 104.175314,60.8689425 C105.652752,60.1555862 106.471188,59.3690651 106.471188,58.5412414 C106.471188,56.994751 103.611974,55.5898697 98.9458214,54.546092 C107.90611,53.6338927 114.464234,51.9310421 116.303059,49.9007203 C118.226917,50.0641609 120.225178,50.1538467 122.255327,50.1538467 C135.148364,50.1538467 146.287608,46.7316245 151.5171,41.7758927 C156.842254,43.0244138 163.251571,43.8038544 170.19234,43.9236322 C170.011646,44.2233716 169.915985,44.5290115 169.915985,44.8393716 C169.915985,46.0696015 171.372164,47.2213563 173.912507,48.2120307 C168.789305,49.4162989 165.558074,51.1781533 165.558074,53.1423908 C165.558074,56.7728966 176.591028,59.7148276 190.196211,59.7148276 C196.988174,59.7148276 203.121135,58.9837701 207.585336,57.8013333 C207.553449,57.9358621 207.532191,58.0721609 207.532191,58.2090498 C207.532191,62.6579387 223.125006,66.2648429 242.352957,66.2648429 C261.580907,66.2648429 277.173723,62.6579387 277.173723,58.2090498 C277.173723,54.8127893 268.085885,51.9103908 255.235365,50.7255939" id="Fill-780" fill="#F2D24C" mask="url(#mask-16)"></path>
                </g>
                <path d="M1352.40876,225.889592 C1352.40876,225.889592 1348.46919,226.369808 1345.08753,225.327225 C1341.70587,224.283307 1340.14599,222.110648 1340.14599,222.110648 C1340.14599,222.110648 1344.07417,221.629764 1347.46721,222.673015 C1350.84887,223.716933 1352.40876,225.889592 1352.40876,225.889592" id="Fill-782" fill="#DB6E1D"></path>
                <path d="M1353.70445,226 C1353.70445,226 1350.90594,224.509142 1350.67274,222.576099 C1350.43953,220.643634 1352.8649,219 1352.8649,219 C1352.8649,219 1355.6634,220.490282 1355.89661,222.423324 C1356.12982,224.356366 1353.70445,226 1353.70445,226" id="Fill-783" fill="#DB6E1D"></path>
                <path d="M1352.40876,226.179682 C1352.40876,226.179682 1350.6475,227.881236 1347.26808,228.610937 C1343.87766,229.340098 1340.14599,228.820659 1340.14599,228.820659 C1340.14599,228.820659 1341.89624,227.118564 1345.28666,226.388863 C1348.66608,225.659702 1352.40876,226.179682 1352.40876,226.179682" id="Fill-784" fill="#DB6E1D"></path>
                <path d="M1317.37226,237.889107 C1317.37226,237.889107 1313.43269,238.370681 1310.05103,237.326714 C1306.66938,236.284082 1305.10949,234.110653 1305.10949,234.110653 C1305.10949,234.110653 1309.04906,233.629747 1312.43072,234.673046 C1315.81237,235.716346 1317.37226,237.889107 1317.37226,237.889107" id="Fill-785" fill="#DB6E1D"></path>
                <path d="M1315.1643,238 C1315.1643,238 1312.3658,236.509596 1312.13259,234.576971 C1311.89938,232.643192 1314.32475,231 1314.32475,231 C1314.32475,231 1317.12325,232.490981 1317.35646,234.423606 C1317.58967,236.356808 1315.1643,238 1315.1643,238" id="Fill-786" fill="#DB6E1D"></path>
                <path d="M1315.62044,238.179233 C1315.62044,238.179233 1313.87019,239.881879 1310.47976,240.610504 C1307.10034,241.34021 1303.35766,240.820767 1303.35766,240.820767 C1303.35766,240.820767 1305.10792,239.118121 1308.49834,238.389496 C1311.87776,237.65979 1315.62044,238.179233 1315.62044,238.179233" id="Fill-787" fill="#DB6E1D"></path>
                <path d="M1368.19999,221 C1368.19999,221 1367.85108,218.914283 1369.77009,217.257943 C1371.68909,215.60101 1375.15767,215 1375.15767,215 C1375.15767,215 1375.50658,217.085717 1373.58758,218.742057 C1371.66857,220.39899 1368.19999,221 1368.19999,221" id="Fill-788" fill="#DB6E1D"></path>
                <path d="M1368.17518,221.307387 C1368.17518,221.307387 1371.03145,219.899128 1374.42264,220.005764 C1377.80373,220.113066 1380.43796,221.693941 1380.43796,221.693941 C1380.43796,221.693941 1377.59178,223.100866 1374.20059,222.994231 C1370.8195,222.887595 1368.17518,221.307387 1368.17518,221.307387" id="Fill-789" fill="#DB6E1D"></path>
                <path d="M1367.45553,221 C1367.45553,221 1364.37081,219.841583 1363.31826,217.908675 C1362.2657,215.975768 1363.6309,214 1363.6309,214 C1363.6309,214 1366.71562,215.158417 1367.7786,217.091325 C1368.83115,219.023629 1367.45553,221 1367.45553,221" id="Fill-790" fill="#DB6E1D"></path>
                <polygon id="Fill-811" fill="#EDDBFC" points="921.459854 352 1003.79562 352 1003.79562 348 921.459854 348"></polygon>
                <path d="M1066.86131,363 C1042.00096,362.699781 1017.68252,361.227699 1008.6638,354.602738 L991.148476,354.602738 L975.766423,351.839179 L1004.97773,351.839179 L1004.97773,348.282734 C1006.45654,347.597617 1011.19412,346.804138 1018.01913,346 L1020.28475,346 L1066.86131,363" id="Fill-812" fill="#D3BB90"></path>
                <path d="M1103.64964,342 L1077.37226,342 C1086.59335,341.421301 1095.59619,341.057493 1103.64964,341 L1103.64964,342" id="Fill-813" fill="#C0BBDA"></path>
                <path d="M1131.67883,342 L1103.64964,342 L1103.64964,341.007484 C1104.32638,341.002806 1105.00312,341 1105.66976,341 C1115.89158,341 1124.5377,341.351731 1131.67883,342" id="Fill-814" fill="#C06F4C"></path>
                <path d="M1080.71608,363 C1076.06238,363 1071.32445,362.985258 1066.61811,362.929238 L1019.56204,346 L1156.77565,346 C1157.42843,346.441673 1157.7864,346.906934 1157.87063,347.392244 C1160.14484,361.178466 1116.64012,363 1080.71608,363" id="Fill-815" fill="#D4CDA6"></path>
                <path d="M1019.56204,345.667 L1017.81022,345.667 C1018.24455,345.555 1018.68613,345.444 1019.14222,345.333 L1019.56204,345.667" id="Fill-816" fill="#988B70"></path>
                <path d="M1157.9562,346 L1020.11311,346 L1019.56204,345.813746 C1033.92989,344.314792 1056.20512,342.8058 1077.264,342 L1132.08478,342 C1146.54358,342.748362 1155.0581,344.159766 1157.9562,346" id="Fill-817" fill="#98987F"></path>
                <g id="Group-821" transform="translate(956.496350, 345.000000)">
                    <polyline id="Fill-818" fill="#D4C6E1" points="25.9031825 7.448 20.0117956 7.448 0.067270073 3.75569231 11.0049635 3.75569231 25.9031825 7.448"></polyline>
                    <polygon id="Fill-820" fill="#EDDBFC" points="412.586277 4.04061538 483.367007 4.04061538 483.367007 0.344 412.586277 0.344"></polygon>
                </g>
                <polyline id="Fill-822" fill="#D3BB90" points="1440 351 1424.23358 348 1440 348 1440 351"></polyline>
                <polyline id="Fill-823" fill="#D4C6E1" points="1429.48905 349 1423.46693 349 1403.21168 345 1414.40172 345 1429.48905 349"></polyline>
                <path d="M909.19708,349.103217 C909.19708,349.103217 906.102821,350.273469 902.715766,349.940318 C899.32973,349.607166 896.934307,347.896597 896.934307,347.896597 C896.934307,347.896597 900.028566,346.726994 903.415621,347.059496 C906.801657,347.392648 909.19708,349.103217 909.19708,349.103217" id="Fill-830" fill="#DB6E1D"></path>
                <path d="M1086.13139,352.102643 C1086.13139,352.102643 1083.04019,353.273483 1079.65313,352.940348 C1076.26608,352.607214 1073.86861,350.896736 1073.86861,350.896736 C1073.86861,350.896736 1076.95981,349.726545 1080.34687,350.059679 C1083.73392,350.392164 1086.13139,352.102643 1086.13139,352.102643" id="Fill-831" fill="#DB6E1D"></path>
                <path d="M884.671533,355.103217 C884.671533,355.103217 881.577274,356.273469 878.190218,355.940318 C874.804183,355.607166 872.408759,353.896597 872.408759,353.896597 C872.408759,353.896597 875.503018,352.726994 878.890074,353.059496 C882.276109,353.392648 884.671533,355.103217 884.671533,355.103217" id="Fill-832" fill="#DB6E1D"></path>
                <g id="Group-836" transform="translate(0.000000, 393.000000)">
                    <polygon id="Fill-833" fill="#F9F8F4" points="1100.40878 43 1375.23163 43 1375.23163 22.6780822 1100.40878 22.6780822"></polygon>
                    <polygon id="Fill-835" fill="#EFCC75" points="0.063250366 3.57312329 1439.86296 3.57312329 1439.86296 0.294520548 0.063250366 0.294520548"></polygon>
                </g>
                <polygon id="Fill-837" fill="#F9F8F4" points="1100.14599 408 1373.43066 408 1373.43066 393 1100.14599 393"></polygon>
            </g>
        </g>
    </g>
</svg>